<svg xmlns="http://www.w3.org/2000/svg" xmlns:xlink="http://www.w3.org/1999/xlink" width="2000" zoomAndPan="magnify" viewBox="0 0 1500 1499.999933" height="2000" preserveAspectRatio="xMidYMid meet" version="1.0"><defs><clipPath id="0cecc7b087"><path d="M 464 701 L 629 701 L 629 780 L 464 780 Z M 464 701 " clip-rule="nonzero"/></clipPath><clipPath id="ebf6a2e66b"><path d="M 602.28125 729.675781 C 602.28125 729.675781 503.851562 711.957031 465.605469 701.269531 C 465.605469 701.269531 462.511719 735.019531 470.105469 744.582031 C 477.695312 754.148438 497.382812 763.148438 541.253906 779.179688 L 560.941406 768.492188 L 628.4375 776.929688 Z M 559.570312 763.1875 L 541.476562 771.742188 L 540.710938 772.101562 L 539.792969 771.804688 L 531.402344 769.078125 C 528.617188 768.132812 525.847656 767.132812 523.0625 766.164062 C 520.300781 765.136719 517.542969 764.082031 514.785156 763.019531 L 510.683594 761.332031 L 508.628906 760.488281 L 506.59375 759.589844 L 502.523438 757.785156 L 498.496094 755.855469 C 497.144531 755.230469 495.832031 754.511719 494.496094 753.832031 C 493.835938 753.484375 493.167969 753.152344 492.507812 752.792969 L 490.539062 751.691406 C 489.882812 751.324219 489.222656 750.964844 488.570312 750.585938 L 486.625 749.414062 C 485.320312 748.652344 484.050781 747.785156 482.765625 746.957031 C 481.496094 746.078125 480.226562 745.207031 478.980469 744.226562 C 478.351562 743.765625 477.730469 743.226562 477.109375 742.714844 C 476.796875 742.449219 476.480469 742.15625 476.164062 741.875 C 476.011719 741.742188 475.839844 741.570312 475.671875 741.40625 L 475.421875 741.160156 C 475.34375 741.082031 475.199219 740.921875 475.09375 740.804688 L 474.636719 740.304688 L 474.304688 739.464844 C 473.402344 737.15625 472.585938 734.828125 471.9375 732.480469 C 471.289062 730.136719 470.714844 727.777344 470.269531 725.414062 C 469.8125 723.050781 469.4375 720.679688 469.140625 718.296875 C 468.996094 717.105469 469.015625 715.9375 468.90625 714.734375 C 468.855469 714.132812 468.898438 713.5 468.855469 712.890625 C 468.8125 712.265625 468.921875 707.996094 468.894531 707.28125 L 479.289062 710.957031 C 479.277344 711.382812 479.273438 711.957031 479.277344 712.476562 C 479.28125 713.007812 479.292969 713.546875 479.304688 714.085938 C 479.332031 715.167969 479.382812 716.25 479.445312 717.335938 C 479.574219 719.503906 479.78125 721.667969 480.058594 723.8125 C 480.320312 725.964844 480.699219 728.082031 481.136719 730.175781 C 481.523438 732.019531 482.019531 733.808594 482.5625 735.570312 C 482.738281 735.753906 482.910156 735.933594 483.101562 736.117188 C 483.585938 736.5625 484.035156 737.015625 484.558594 737.453125 C 485.554688 738.34375 486.644531 739.199219 487.726562 740.054688 C 488.851562 740.882812 489.941406 741.738281 491.117188 742.523438 L 492.855469 743.726562 C 493.441406 744.121094 494.042969 744.496094 494.636719 744.882812 L 496.425781 746.035156 C 497.027344 746.414062 497.648438 746.773438 498.257812 747.140625 C 499.484375 747.867188 500.6875 748.632812 501.953125 749.316406 L 505.707031 751.414062 L 509.53125 753.410156 L 511.449219 754.40625 L 513.394531 755.351562 L 517.289062 757.246094 C 519.914062 758.453125 522.546875 759.65625 525.195312 760.835938 C 527.863281 761.960938 530.523438 763.113281 533.210938 764.21875 L 540.550781 767.125 L 558.601562 759.941406 L 559.078125 759.753906 L 559.476562 759.816406 L 611.984375 768.070312 Z M 559.570312 763.1875 " clip-rule="nonzero"/></clipPath><linearGradient x1="626.148133" gradientTransform="matrix(3.485082, 0, 0, 3.485443, -1719.66659, -804.342764)" y1="443.14801" x2="673.758674" gradientUnits="userSpaceOnUse" y2="443.14801" id="ea5896cae3"><stop stop-opacity="1" stop-color="rgb(100%, 86.669922%, 0%)" offset="0"/><stop stop-opacity="1" stop-color="rgb(99.992371%, 86.552429%, 0.0610352%)" offset="0.03125"/><stop stop-opacity="1" stop-color="rgb(99.980164%, 86.322021%, 0.18158%)" offset="0.046875"/><stop stop-opacity="1" stop-color="rgb(99.967957%, 86.097717%, 0.299072%)" offset="0.0625"/><stop stop-opacity="1" stop-color="rgb(99.95575%, 85.874939%, 0.418091%)" offset="0.078125"/><stop stop-opacity="1" stop-color="rgb(99.943542%, 85.650635%, 0.535583%)" offset="0.09375"/><stop stop-opacity="1" stop-color="rgb(99.92981%, 85.426331%, 0.654602%)" offset="0.109375"/><stop stop-opacity="1" stop-color="rgb(99.917603%, 85.202026%, 0.772095%)" offset="0.125"/><stop stop-opacity="1" stop-color="rgb(99.905396%, 84.977722%, 0.891113%)" offset="0.140625"/><stop stop-opacity="1" stop-color="rgb(99.893188%, 84.754944%, 1.008606%)" offset="0.15625"/><stop stop-opacity="1" stop-color="rgb(99.880981%, 84.53064%, 1.127625%)" offset="0.171875"/><stop stop-opacity="1" stop-color="rgb(99.868774%, 84.306335%, 1.245117%)" offset="0.1875"/><stop stop-opacity="1" stop-color="rgb(99.856567%, 84.082031%, 1.36261%)" offset="0.203125"/><stop stop-opacity="1" stop-color="rgb(99.84436%, 83.859253%, 1.481628%)" offset="0.21875"/><stop stop-opacity="1" stop-color="rgb(99.832153%, 83.634949%, 1.599121%)" offset="0.234375"/><stop stop-opacity="1" stop-color="rgb(99.81842%, 83.410645%, 1.71814%)" offset="0.25"/><stop stop-opacity="1" stop-color="rgb(99.806213%, 83.18634%, 1.835632%)" offset="0.265625"/><stop stop-opacity="1" stop-color="rgb(99.794006%, 82.962036%, 1.954651%)" offset="0.28125"/><stop stop-opacity="1" stop-color="rgb(99.781799%, 82.739258%, 2.072144%)" offset="0.296875"/><stop stop-opacity="1" stop-color="rgb(99.769592%, 82.514954%, 2.191162%)" offset="0.3125"/><stop stop-opacity="1" stop-color="rgb(99.757385%, 82.290649%, 2.308655%)" offset="0.328125"/><stop stop-opacity="1" stop-color="rgb(99.745178%, 82.066345%, 2.426147%)" offset="0.34375"/><stop stop-opacity="1" stop-color="rgb(99.732971%, 81.843567%, 2.545166%)" offset="0.359375"/><stop stop-opacity="1" stop-color="rgb(99.720764%, 81.619263%, 2.662659%)" offset="0.375"/><stop stop-opacity="1" stop-color="rgb(99.708557%, 81.394958%, 2.781677%)" offset="0.390625"/><stop stop-opacity="1" stop-color="rgb(99.694824%, 81.170654%, 2.89917%)" offset="0.40625"/><stop stop-opacity="1" stop-color="rgb(99.682617%, 80.947876%, 3.018188%)" offset="0.421875"/><stop stop-opacity="1" stop-color="rgb(99.67041%, 80.723572%, 3.135681%)" offset="0.4375"/><stop stop-opacity="1" stop-color="rgb(99.658203%, 80.499268%, 3.253174%)" offset="0.453125"/><stop stop-opacity="1" stop-color="rgb(99.645996%, 80.274963%, 3.372192%)" offset="0.46875"/><stop stop-opacity="1" stop-color="rgb(99.633789%, 80.050659%, 3.489685%)" offset="0.484375"/><stop stop-opacity="1" stop-color="rgb(99.621582%, 79.827881%, 3.608704%)" offset="0.5"/><stop stop-opacity="1" stop-color="rgb(99.609375%, 79.603577%, 3.726196%)" offset="0.515625"/><stop stop-opacity="1" stop-color="rgb(99.597168%, 79.379272%, 3.845215%)" offset="0.53125"/><stop stop-opacity="1" stop-color="rgb(99.583435%, 79.154968%, 3.962708%)" offset="0.546875"/><stop stop-opacity="1" stop-color="rgb(99.571228%, 78.93219%, 4.081726%)" offset="0.5625"/><stop stop-opacity="1" stop-color="rgb(99.559021%, 78.707886%, 4.199219%)" offset="0.578125"/><stop stop-opacity="1" stop-color="rgb(99.546814%, 78.483582%, 4.316711%)" offset="0.59375"/><stop stop-opacity="1" stop-color="rgb(99.534607%, 78.259277%, 4.43573%)" offset="0.609375"/><stop stop-opacity="1" stop-color="rgb(99.5224%, 78.034973%, 4.553223%)" offset="0.625"/><stop stop-opacity="1" stop-color="rgb(99.510193%, 77.812195%, 4.672241%)" offset="0.640625"/><stop stop-opacity="1" stop-color="rgb(99.497986%, 77.587891%, 4.789734%)" offset="0.65625"/><stop stop-opacity="1" stop-color="rgb(99.485779%, 77.363586%, 4.908752%)" offset="0.671875"/><stop stop-opacity="1" stop-color="rgb(99.472046%, 77.139282%, 5.026245%)" offset="0.6875"/><stop stop-opacity="1" stop-color="rgb(99.459839%, 76.916504%, 5.145264%)" offset="0.703125"/><stop stop-opacity="1" stop-color="rgb(99.447632%, 76.6922%, 5.262756%)" offset="0.71875"/><stop stop-opacity="1" stop-color="rgb(99.435425%, 76.467896%, 5.380249%)" offset="0.734375"/><stop stop-opacity="1" stop-color="rgb(99.423218%, 76.243591%, 5.499268%)" offset="0.75"/><stop stop-opacity="1" stop-color="rgb(99.411011%, 76.020813%, 5.61676%)" offset="0.765625"/><stop stop-opacity="1" stop-color="rgb(99.398804%, 75.796509%, 5.735779%)" offset="0.78125"/><stop stop-opacity="1" stop-color="rgb(99.386597%, 75.572205%, 5.853271%)" offset="0.796875"/><stop stop-opacity="1" stop-color="rgb(99.37439%, 75.3479%, 5.97229%)" offset="0.8125"/><stop stop-opacity="1" stop-color="rgb(99.362183%, 75.123596%, 6.089783%)" offset="0.828125"/><stop stop-opacity="1" stop-color="rgb(99.34845%, 74.900818%, 6.207275%)" offset="0.84375"/><stop stop-opacity="1" stop-color="rgb(99.336243%, 74.676514%, 6.326294%)" offset="0.859375"/><stop stop-opacity="1" stop-color="rgb(99.324036%, 74.452209%, 6.443787%)" offset="0.875"/><stop stop-opacity="1" stop-color="rgb(99.311829%, 74.227905%, 6.562805%)" offset="0.890625"/><stop stop-opacity="1" stop-color="rgb(99.299622%, 74.005127%, 6.680298%)" offset="0.90625"/><stop stop-opacity="1" stop-color="rgb(99.287415%, 73.780823%, 6.799316%)" offset="0.921875"/><stop stop-opacity="1" stop-color="rgb(99.275208%, 73.556519%, 6.916809%)" offset="0.9375"/><stop stop-opacity="1" stop-color="rgb(99.263%, 73.332214%, 7.035828%)" offset="0.953125"/><stop stop-opacity="1" stop-color="rgb(99.250793%, 73.10791%, 7.15332%)" offset="0.96875"/><stop stop-opacity="1" stop-color="rgb(99.237061%, 72.885132%, 7.270813%)" offset="0.984375"/><stop stop-opacity="1" stop-color="rgb(99.224854%, 72.660828%, 7.389832%)" offset="1"/></linearGradient><clipPath id="47b9abe3b7"><path d="M 920 701 L 1085 701 L 1085 780 L 920 780 Z M 920 701 " clip-rule="nonzero"/></clipPath><clipPath id="654198c4e1"><path d="M 920.636719 776.929688 L 988.132812 768.492188 L 1007.820312 779.179688 C 1051.691406 763.148438 1071.378906 754.148438 1078.972656 744.585938 C 1086.5625 735.019531 1083.46875 701.269531 1083.46875 701.269531 C 1045.222656 711.957031 946.792969 729.675781 946.792969 729.675781 Z M 937.089844 768.070312 L 989.597656 759.816406 L 990 759.753906 L 990.472656 759.941406 L 1008.523438 767.125 L 1015.863281 764.21875 C 1018.550781 763.113281 1021.210938 761.960938 1023.878906 760.835938 C 1026.527344 759.65625 1029.160156 758.453125 1031.785156 757.246094 L 1035.679688 755.351562 L 1037.625 754.40625 L 1039.542969 753.410156 L 1043.367188 751.414062 L 1047.121094 749.316406 C 1048.386719 748.632812 1049.589844 747.867188 1050.816406 747.140625 C 1051.425781 746.773438 1052.046875 746.414062 1052.648438 746.035156 L 1054.4375 744.882812 C 1055.03125 744.496094 1055.632812 744.121094 1056.21875 743.726562 L 1057.957031 742.523438 C 1059.132812 741.738281 1060.222656 740.882812 1061.347656 740.054688 C 1062.429688 739.199219 1063.519531 738.34375 1064.515625 737.453125 C 1065.039062 737.015625 1065.488281 736.5625 1065.972656 736.117188 C 1066.164062 735.933594 1066.335938 735.753906 1066.511719 735.570312 C 1067.054688 733.808594 1067.550781 732.019531 1067.933594 730.175781 C 1068.375 728.082031 1068.75 725.964844 1069.015625 723.8125 C 1069.292969 721.667969 1069.5 719.503906 1069.628906 717.335938 C 1069.691406 716.25 1069.742188 715.167969 1069.769531 714.085938 C 1069.78125 713.546875 1069.792969 713.007812 1069.796875 712.476562 C 1069.800781 711.957031 1069.796875 711.382812 1069.785156 710.957031 L 1080.175781 707.28125 C 1080.152344 707.996094 1080.261719 712.265625 1080.21875 712.890625 C 1080.175781 713.5 1080.21875 714.132812 1080.164062 714.734375 C 1080.058594 715.9375 1080.078125 717.105469 1079.933594 718.296875 C 1079.636719 720.679688 1079.257812 723.050781 1078.804688 725.414062 C 1078.359375 727.777344 1077.785156 730.136719 1077.136719 732.480469 C 1076.488281 734.828125 1075.671875 737.15625 1074.765625 739.464844 L 1074.4375 740.304688 L 1073.980469 740.804688 C 1073.875 740.921875 1073.730469 741.082031 1073.648438 741.160156 L 1073.398438 741.40625 C 1073.234375 741.570312 1073.0625 741.742188 1072.910156 741.875 C 1072.59375 742.15625 1072.277344 742.449219 1071.964844 742.714844 C 1071.34375 743.226562 1070.71875 743.765625 1070.09375 744.226562 C 1068.84375 745.207031 1067.578125 746.078125 1066.308594 746.957031 C 1065.023438 747.785156 1063.753906 748.652344 1062.449219 749.414062 L 1060.503906 750.585938 C 1059.851562 750.964844 1059.191406 751.324219 1058.535156 751.691406 L 1056.566406 752.792969 C 1055.90625 753.152344 1055.238281 753.484375 1054.574219 753.832031 C 1053.242188 754.511719 1051.929688 755.230469 1050.578125 755.855469 L 1046.550781 757.785156 L 1042.480469 759.589844 L 1040.445312 760.488281 L 1038.390625 761.332031 L 1034.289062 763.019531 C 1031.53125 764.082031 1028.773438 765.136719 1026.011719 766.164062 C 1023.226562 767.132812 1020.457031 768.132812 1017.671875 769.078125 L 1009.28125 771.804688 L 1008.363281 772.101562 L 1007.597656 771.742188 L 989.503906 763.1875 Z M 937.089844 768.070312 " clip-rule="nonzero"/></clipPath><linearGradient x1="757.601685" gradientTransform="matrix(3.485082, 0, 0, 3.485443, -1719.66659, -804.342764)" y1="443.14801" x2="805.212286" gradientUnits="userSpaceOnUse" y2="443.14801" id="ef0df5a1ba"><stop stop-opacity="1" stop-color="rgb(100%, 86.669922%, 0%)" offset="0"/><stop stop-opacity="1" stop-color="rgb(99.992371%, 86.557007%, 0.0579834%)" offset="0.015625"/><stop stop-opacity="1" stop-color="rgb(99.980164%, 86.332703%, 0.175476%)" offset="0.03125"/><stop stop-opacity="1" stop-color="rgb(99.967957%, 86.108398%, 0.294495%)" offset="0.046875"/><stop stop-opacity="1" stop-color="rgb(99.95575%, 85.88562%, 0.411987%)" offset="0.0625"/><stop stop-opacity="1" stop-color="rgb(99.943542%, 85.661316%, 0.531006%)" offset="0.078125"/><stop stop-opacity="1" stop-color="rgb(99.931335%, 85.437012%, 0.648499%)" offset="0.09375"/><stop stop-opacity="1" stop-color="rgb(99.919128%, 85.212708%, 0.767517%)" offset="0.109375"/><stop stop-opacity="1" stop-color="rgb(99.906921%, 84.988403%, 0.88501%)" offset="0.125"/><stop stop-opacity="1" stop-color="rgb(99.894714%, 84.765625%, 1.002502%)" offset="0.140625"/><stop stop-opacity="1" stop-color="rgb(99.880981%, 84.541321%, 1.121521%)" offset="0.15625"/><stop stop-opacity="1" stop-color="rgb(99.868774%, 84.317017%, 1.239014%)" offset="0.171875"/><stop stop-opacity="1" stop-color="rgb(99.856567%, 84.092712%, 1.358032%)" offset="0.1875"/><stop stop-opacity="1" stop-color="rgb(99.84436%, 83.869934%, 1.475525%)" offset="0.203125"/><stop stop-opacity="1" stop-color="rgb(99.832153%, 83.64563%, 1.594543%)" offset="0.21875"/><stop stop-opacity="1" stop-color="rgb(99.819946%, 83.421326%, 1.712036%)" offset="0.234375"/><stop stop-opacity="1" stop-color="rgb(99.807739%, 83.197021%, 1.831055%)" offset="0.25"/><stop stop-opacity="1" stop-color="rgb(99.795532%, 82.972717%, 1.948547%)" offset="0.265625"/><stop stop-opacity="1" stop-color="rgb(99.783325%, 82.749939%, 2.06604%)" offset="0.28125"/><stop stop-opacity="1" stop-color="rgb(99.769592%, 82.525635%, 2.185059%)" offset="0.296875"/><stop stop-opacity="1" stop-color="rgb(99.757385%, 82.301331%, 2.302551%)" offset="0.3125"/><stop stop-opacity="1" stop-color="rgb(99.745178%, 82.077026%, 2.42157%)" offset="0.328125"/><stop stop-opacity="1" stop-color="rgb(99.732971%, 81.854248%, 2.539062%)" offset="0.34375"/><stop stop-opacity="1" stop-color="rgb(99.720764%, 81.629944%, 2.658081%)" offset="0.359375"/><stop stop-opacity="1" stop-color="rgb(99.708557%, 81.40564%, 2.775574%)" offset="0.375"/><stop stop-opacity="1" stop-color="rgb(99.69635%, 81.181335%, 2.893066%)" offset="0.390625"/><stop stop-opacity="1" stop-color="rgb(99.684143%, 80.958557%, 3.012085%)" offset="0.40625"/><stop stop-opacity="1" stop-color="rgb(99.671936%, 80.734253%, 3.129578%)" offset="0.421875"/><stop stop-opacity="1" stop-color="rgb(99.658203%, 80.509949%, 3.248596%)" offset="0.4375"/><stop stop-opacity="1" stop-color="rgb(99.645996%, 80.285645%, 3.366089%)" offset="0.453125"/><stop stop-opacity="1" stop-color="rgb(99.633789%, 80.06134%, 3.485107%)" offset="0.46875"/><stop stop-opacity="1" stop-color="rgb(99.621582%, 79.838562%, 3.6026%)" offset="0.484375"/><stop stop-opacity="1" stop-color="rgb(99.609375%, 79.614258%, 3.721619%)" offset="0.5"/><stop stop-opacity="1" stop-color="rgb(99.597168%, 79.389954%, 3.839111%)" offset="0.515625"/><stop stop-opacity="1" stop-color="rgb(99.584961%, 79.165649%, 3.956604%)" offset="0.53125"/><stop stop-opacity="1" stop-color="rgb(99.572754%, 78.942871%, 4.075623%)" offset="0.546875"/><stop stop-opacity="1" stop-color="rgb(99.560547%, 78.718567%, 4.193115%)" offset="0.5625"/><stop stop-opacity="1" stop-color="rgb(99.54834%, 78.494263%, 4.312134%)" offset="0.578125"/><stop stop-opacity="1" stop-color="rgb(99.534607%, 78.269958%, 4.429626%)" offset="0.59375"/><stop stop-opacity="1" stop-color="rgb(99.5224%, 78.045654%, 4.548645%)" offset="0.609375"/><stop stop-opacity="1" stop-color="rgb(99.510193%, 77.822876%, 4.666138%)" offset="0.625"/><stop stop-opacity="1" stop-color="rgb(99.497986%, 77.598572%, 4.785156%)" offset="0.640625"/><stop stop-opacity="1" stop-color="rgb(99.485779%, 77.374268%, 4.902649%)" offset="0.65625"/><stop stop-opacity="1" stop-color="rgb(99.473572%, 77.149963%, 5.020142%)" offset="0.671875"/><stop stop-opacity="1" stop-color="rgb(99.461365%, 76.927185%, 5.13916%)" offset="0.6875"/><stop stop-opacity="1" stop-color="rgb(99.449158%, 76.702881%, 5.256653%)" offset="0.703125"/><stop stop-opacity="1" stop-color="rgb(99.436951%, 76.478577%, 5.375671%)" offset="0.71875"/><stop stop-opacity="1" stop-color="rgb(99.423218%, 76.254272%, 5.493164%)" offset="0.734375"/><stop stop-opacity="1" stop-color="rgb(99.411011%, 76.031494%, 5.612183%)" offset="0.75"/><stop stop-opacity="1" stop-color="rgb(99.398804%, 75.80719%, 5.729675%)" offset="0.765625"/><stop stop-opacity="1" stop-color="rgb(99.386597%, 75.582886%, 5.847168%)" offset="0.78125"/><stop stop-opacity="1" stop-color="rgb(99.37439%, 75.358582%, 5.966187%)" offset="0.796875"/><stop stop-opacity="1" stop-color="rgb(99.362183%, 75.134277%, 6.083679%)" offset="0.8125"/><stop stop-opacity="1" stop-color="rgb(99.349976%, 74.911499%, 6.202698%)" offset="0.828125"/><stop stop-opacity="1" stop-color="rgb(99.337769%, 74.687195%, 6.32019%)" offset="0.84375"/><stop stop-opacity="1" stop-color="rgb(99.325562%, 74.462891%, 6.439209%)" offset="0.859375"/><stop stop-opacity="1" stop-color="rgb(99.311829%, 74.238586%, 6.556702%)" offset="0.875"/><stop stop-opacity="1" stop-color="rgb(99.299622%, 74.015808%, 6.67572%)" offset="0.890625"/><stop stop-opacity="1" stop-color="rgb(99.287415%, 73.791504%, 6.793213%)" offset="0.90625"/><stop stop-opacity="1" stop-color="rgb(99.275208%, 73.5672%, 6.910706%)" offset="0.921875"/><stop stop-opacity="1" stop-color="rgb(99.263%, 73.342896%, 7.029724%)" offset="0.9375"/><stop stop-opacity="1" stop-color="rgb(99.250793%, 73.118591%, 7.147217%)" offset="0.953125"/><stop stop-opacity="1" stop-color="rgb(99.238586%, 72.895813%, 7.266235%)" offset="0.96875"/><stop stop-opacity="1" stop-color="rgb(99.224854%, 72.666931%, 7.38678%)" offset="1"/></linearGradient></defs><path fill="#1f417f" d="M 208.234375 586.441406 C 208.140625 587.269531 208.09375 587.683594 208.003906 588.511719 C 207.78125 590.53125 207.078125 592.203125 205.878906 593.539062 C 204.683594 594.871094 203.238281 595.769531 201.539062 596.210938 C 197.085938 597.4375 186.34375 600.292969 169.375 605.671875 C 173.675781 608.070312 177.988281 610.390625 182.316406 612.632812 C 189.183594 616.269531 192.628906 618.046875 199.535156 621.527344 C 201.136719 622.359375 202.414062 623.566406 203.382812 625.15625 C 204.347656 626.75 204.773438 628.566406 204.675781 630.632812 C 204.632812 631.496094 204.613281 631.929688 204.574219 632.796875 C 204.484375 634.785156 203.875 636.554688 202.75 638.117188 C 201.621094 639.675781 200.242188 640.722656 198.613281 641.25 C 176.089844 649.941406 164.882812 654.804688 142.660156 665.613281 C 142.039062 665.878906 141.398438 666.015625 140.742188 666.015625 C 139.027344 666.015625 137.449219 665.253906 136.007812 663.722656 C 134.007812 661.554688 133.019531 658.8125 133.058594 655.539062 C 133.070312 654.621094 133.078125 654.164062 133.089844 653.253906 C 133.128906 650.878906 133.703125 648.8125 134.8125 647.066406 C 135.921875 645.324219 137.292969 644.128906 138.925781 643.480469 C 152.191406 637.6875 158.851562 634.972656 172.207031 629.902344 C 159.675781 623.613281 153.441406 620.339844 141.042969 613.535156 C 139.457031 612.625 138.199219 611.28125 137.285156 609.515625 C 136.371094 607.742188 135.996094 605.710938 136.171875 603.4375 C 136.238281 602.5625 136.273438 602.125 136.34375 601.25 C 136.527344 598.980469 137.214844 597.0625 138.394531 595.496094 C 139.570312 593.933594 141.023438 592.886719 142.71875 592.371094 C 144.953125 591.691406 147.226562 590.996094 149.519531 590.265625 C 160.070312 587.089844 165.351562 585.601562 175.925781 582.828125 C 171.300781 580.011719 166.6875 577.195312 162.085938 574.375 C 155.3125 570.136719 151.9375 567.976562 145.222656 563.578125 C 143.695312 562.574219 142.515625 561.1875 141.695312 559.425781 C 140.878906 557.667969 140.617188 555.667969 140.941406 553.449219 C 141.066406 552.613281 141.125 552.195312 141.25 551.359375 C 141.703125 548.328125 143.078125 546.046875 145.359375 544.527344 C 147.007812 543.425781 148.671875 543.050781 150.355469 543.386719 C 151.003906 543.515625 151.613281 543.761719 152.191406 544.121094 C 156.339844 547.003906 167.511719 554.796875 186.097656 566.460938 C 191.910156 570.15625 197.765625 573.757812 203.660156 577.269531 C 205.21875 578.121094 206.371094 579.410156 207.183594 581 C 208.058594 582.71875 208.453125 584.539062 208.234375 586.441406 Z M 208.234375 586.441406 " fill-opacity="1" fill-rule="nonzero"/><path fill="#1f417f" d="M 231.707031 473.949219 C 231.480469 474.675781 231.367188 475.039062 231.144531 475.765625 C 230.59375 477.535156 229.632812 478.890625 228.242188 479.835938 C 226.851562 480.777344 225.285156 481.273438 223.546875 481.308594 C 218.976562 481.457031 207.972656 481.71875 190.449219 482.894531 C 194.277344 485.972656 198.136719 488.976562 202.015625 491.914062 C 208.164062 496.648438 211.253906 498.980469 217.46875 503.574219 C 218.90625 504.664062 219.964844 506.019531 220.652344 507.648438 C 221.34375 509.277344 221.46875 510.992188 221.035156 512.816406 C 220.855469 513.578125 220.765625 513.960938 220.585938 514.722656 C 220.175781 516.480469 219.292969 517.929688 217.933594 519.074219 C 216.574219 520.21875 215.050781 520.859375 213.367188 520.976562 C 189.859375 523.867188 178.078125 525.773438 154.53125 530.5625 C 153.875 530.664062 153.226562 530.648438 152.578125 530.507812 C 150.898438 530.136719 149.472656 529.125 148.304688 527.453125 C 146.691406 525.101562 146.167969 522.460938 146.734375 519.5625 C 146.894531 518.753906 146.976562 518.347656 147.136719 517.539062 C 147.554688 515.441406 148.453125 513.730469 149.824219 512.414062 C 151.199219 511.101562 152.734375 510.339844 154.441406 510.113281 C 168.394531 507.8125 175.367188 506.828125 189.296875 505.179688 C 178.019531 496.871094 172.433594 492.605469 161.371094 483.851562 C 159.960938 482.695312 158.945312 481.222656 158.335938 479.445312 C 157.726562 477.664062 157.6875 475.761719 158.230469 473.757812 C 158.441406 472.988281 158.546875 472.605469 158.757812 471.835938 C 159.304688 469.839844 160.289062 468.265625 161.703125 467.113281 C 163.109375 465.964844 164.707031 465.332031 166.453125 465.234375 C 168.757812 465.101562 171.101562 464.964844 173.46875 464.800781 C 184.339844 464.210938 189.765625 464.003906 200.59375 463.769531 C 196.511719 460.242188 192.445312 456.714844 188.386719 453.183594 C 182.429688 447.910156 179.472656 445.238281 173.597656 439.828125 C 172.265625 438.59375 171.332031 437.085938 170.816406 435.320312 C 170.296875 433.554688 170.371094 431.691406 171.050781 429.75 C 171.308594 429.019531 171.4375 428.652344 171.695312 427.921875 C 172.632812 425.273438 174.355469 423.5 176.84375 422.605469 C 178.640625 421.960938 180.335938 421.976562 181.933594 422.636719 C 182.550781 422.890625 183.105469 423.246094 183.613281 423.695312 C 187.210938 427.195312 196.902344 436.652344 213.238281 451.171875 C 218.339844 455.757812 223.5 460.261719 228.714844 464.695312 C 230.101562 465.800781 231.027344 467.210938 231.5625 468.820312 C 232.140625 470.558594 232.230469 472.28125 231.707031 473.949219 Z M 231.707031 473.949219 " fill-opacity="1" fill-rule="nonzero"/><path fill="#1f417f" d="M 273.179688 376.226562 C 272.839844 376.847656 272.667969 377.160156 272.328125 377.785156 C 271.496094 379.308594 270.328125 380.359375 268.804688 380.941406 C 267.285156 381.519531 265.667969 381.652344 263.957031 381.316406 C 259.445312 380.5 248.597656 378.441406 231.203125 375.847656 C 234.457031 379.484375 237.746094 383.058594 241.074219 386.574219 C 246.328125 392.21875 248.980469 395.011719 254.324219 400.539062 C 255.554688 401.839844 256.371094 403.308594 256.78125 404.949219 C 257.191406 406.589844 257.03125 408.1875 256.308594 409.765625 C 256.003906 410.425781 255.855469 410.757812 255.554688 411.417969 C 254.859375 412.941406 253.757812 414.082031 252.234375 414.84375 C 250.714844 415.605469 249.113281 415.863281 247.441406 415.617188 C 223.894531 413.285156 212.019531 412.527344 188.125 411.878906 C 187.464844 411.832031 186.832031 411.675781 186.21875 411.410156 C 184.632812 410.71875 183.398438 409.492188 182.523438 407.722656 C 181.328125 405.242188 181.242188 402.722656 182.277344 400.203125 C 182.566406 399.496094 182.710938 399.144531 183 398.441406 C 183.753906 396.617188 184.917969 395.246094 186.476562 394.335938 C 188.042969 393.429688 189.675781 393.054688 191.386719 393.210938 C 205.460938 394.066406 212.464844 394.640625 226.40625 396.066406 C 216.703125 386.078125 211.921875 380.984375 202.5 370.617188 C 201.308594 369.257812 200.550781 367.691406 200.246094 365.929688 C 199.941406 364.160156 200.214844 362.40625 201.078125 360.675781 C 201.410156 360.011719 201.574219 359.679688 201.910156 359.015625 C 202.777344 357.296875 204 356.050781 205.578125 355.285156 C 207.152344 354.519531 208.820312 354.273438 210.550781 354.546875 C 212.835938 354.90625 215.160156 355.273438 217.511719 355.617188 C 228.28125 357.34375 233.640625 358.285156 244.3125 360.324219 C 240.886719 356.214844 237.472656 352.105469 234.074219 347.992188 C 229.09375 341.871094 226.632812 338.78125 221.757812 332.542969 C 220.652344 331.121094 219.984375 329.53125 219.769531 327.785156 C 219.554688 326.042969 219.933594 324.328125 220.921875 322.667969 C 221.292969 322.039062 221.480469 321.726562 221.855469 321.101562 C 223.214844 318.835938 225.199219 317.539062 227.792969 317.222656 C 229.660156 316.992188 231.324219 317.355469 232.785156 318.300781 C 233.347656 318.667969 233.835938 319.109375 234.257812 319.632812 C 237.214844 323.632812 245.167969 334.429688 258.808594 351.289062 C 263.058594 356.597656 267.378906 361.847656 271.769531 367.039062 C 272.949219 368.347656 273.625 369.851562 273.882812 371.449219 C 274.167969 373.179688 273.96875 374.792969 273.179688 376.226562 Z M 273.179688 376.226562 " fill-opacity="1" fill-rule="nonzero"/><path fill="#1f417f" d="M 297.785156 336.957031 C 296.347656 339.085938 294.300781 340.371094 291.625 340.824219 C 288.949219 341.277344 286.46875 340.753906 284.191406 339.222656 C 282.027344 337.765625 280.566406 335.644531 279.847656 332.847656 C 279.464844 330.980469 279.582031 329.230469 280.191406 327.597656 C 280.359375 326.925781 280.632812 326.308594 281.011719 325.742188 C 281.1875 325.484375 281.273438 325.355469 281.449219 325.097656 C 281.792969 324.585938 282.210938 324.144531 282.703125 323.78125 C 284.054688 322.507812 285.710938 321.722656 287.671875 321.421875 C 290.453125 321.117188 293.011719 321.75 295.097656 323.332031 C 297.265625 324.972656 298.617188 327.242188 299.128906 329.871094 C 299.648438 332.5 299.203125 334.851562 297.785156 336.957031 Z M 297.785156 336.957031 " fill-opacity="1" fill-rule="nonzero"/><path fill="#1f417f" d="M 344.199219 277.300781 C 343.8125 277.71875 343.621094 277.929688 343.238281 278.347656 C 341.9375 279.769531 340.246094 280.496094 338.152344 280.519531 C 336.058594 280.546875 334.21875 279.871094 332.640625 278.472656 C 323.332031 270.222656 318.679688 266.101562 309.371094 257.851562 C 310.640625 264.25 311.320312 267.4375 312.75 273.765625 C 312.960938 274.289062 313.097656 274.804688 313.144531 275.3125 C 313.175781 275.464844 313.1875 275.539062 313.21875 275.691406 C 313.535156 277.644531 312.917969 279.53125 311.382812 281.371094 C 310.746094 282.132812 310.121094 282.785156 309.507812 283.242188 C 308.703125 283.839844 307.769531 284.199219 306.824219 284.328125 C 305.871094 284.460938 304.890625 284.488281 303.875 284.40625 C 297.4375 284.109375 294.203125 284.007812 287.710938 283.898438 C 297.441406 291.609375 302.308594 295.464844 312.039062 303.175781 C 313.691406 304.484375 314.675781 306.183594 315.011719 308.265625 C 315.347656 310.351562 314.933594 312.148438 313.769531 313.679688 C 313.410156 314.15625 313.230469 314.394531 312.871094 314.871094 C 311.710938 316.40625 310.097656 317.285156 308.011719 317.511719 C 305.929688 317.738281 304.042969 317.230469 302.355469 315.96875 C 284.246094 302.414062 275.195312 295.636719 257.089844 282.082031 C 255.402344 280.820312 254.410156 279.082031 254.136719 276.867188 C 253.859375 274.648438 254.375 272.664062 255.679688 270.933594 C 256.4375 269.929688 257.320312 269.023438 258.316406 268.210938 C 259.320312 267.394531 260.464844 266.921875 261.757812 266.789062 C 263.304688 266.757812 264.078125 266.746094 265.625 266.726562 C 275.070312 266.714844 283.308594 266.886719 290.398438 267.097656 C 291.9375 267.152344 292.707031 267.1875 294.242188 267.253906 C 292.664062 260.242188 291.917969 256.714844 290.527344 249.621094 C 289.761719 245.839844 289.394531 243.941406 288.6875 240.136719 C 288.347656 238.25 288.179688 237.304688 287.855469 235.410156 C 287.800781 234.074219 288.09375 232.765625 288.75 231.5 C 289.015625 230.902344 289.359375 230.378906 289.777344 229.921875 C 290.234375 229.417969 290.464844 229.164062 290.929688 228.664062 C 292.394531 227.066406 294.234375 226.226562 296.429688 226.136719 C 298.625 226.046875 300.492188 226.734375 302.03125 228.175781 C 318.550781 243.632812 326.808594 251.359375 343.328125 266.816406 C 344.867188 268.257812 345.710938 270.019531 345.875 272.097656 C 346.039062 274.179688 345.480469 275.90625 344.199219 277.300781 Z M 344.199219 277.300781 " fill-opacity="1" fill-rule="nonzero"/><path fill="#1f417f" d="M 377.65625 244.140625 C 377.222656 244.53125 377.007812 244.726562 376.578125 245.121094 C 375.1875 246.382812 373.457031 246.933594 371.367188 246.765625 C 369.28125 246.601562 367.503906 245.765625 366.046875 244.242188 C 360.628906 238.585938 357.917969 235.757812 352.503906 230.101562 C 350.371094 229.625 337.570312 226.328125 313.15625 222.222656 C 311.84375 221.933594 310.703125 221.324219 309.746094 220.394531 C 308.710938 219.394531 307.996094 218.207031 307.609375 216.832031 C 307.222656 215.460938 307.21875 214.097656 307.597656 212.746094 C 307.976562 211.394531 308.65625 210.230469 309.628906 209.269531 C 309.816406 209.082031 309.914062 208.988281 310.101562 208.800781 C 310.664062 208.246094 311.238281 207.730469 311.820312 207.253906 C 312.40625 206.773438 313.070312 206.378906 313.824219 206.070312 C 315.566406 205.449219 317.324219 205.339844 319.089844 205.738281 C 320.855469 206.128906 330.144531 207.839844 346.480469 211.773438 C 344.730469 200.84375 343.964844 195.335938 342.664062 184.242188 C 342.644531 184.21875 342.636719 184.199219 342.648438 184.1875 C 342.660156 184.175781 342.671875 184.148438 342.671875 184.097656 C 342.28125 181.265625 343.152344 178.828125 345.285156 176.828125 C 345.941406 176.277344 346.269531 176.003906 346.929688 175.457031 C 349.097656 173.65625 351.699219 173.199219 354.695312 174.078125 C 356.066406 174.609375 357.214844 175.421875 358.140625 176.519531 C 359 177.542969 359.519531 178.710938 359.710938 180.019531 C 360.53125 189.210938 361.5625 198.304688 362.789062 207.296875 C 363.425781 212.089844 363.769531 214.476562 364.492188 219.234375 C 369.753906 225.035156 372.386719 227.933594 377.648438 233.730469 C 379.0625 235.289062 379.757812 237.105469 379.75 239.167969 C 379.746094 241.234375 379.050781 242.882812 377.65625 244.140625 Z M 377.65625 244.140625 " fill-opacity="1" fill-rule="nonzero"/><path fill="#1f417f" d="M 427.832031 204.148438 C 427.34375 204.492188 427.101562 204.664062 426.617188 205.003906 C 425.089844 206.082031 423.3125 206.410156 421.257812 205.996094 C 419.203125 205.582031 417.53125 204.550781 416.253906 202.878906 C 404.808594 187.890625 399.085938 180.398438 387.640625 165.414062 C 383.65625 168.304688 381.679688 169.773438 377.753906 172.75 C 376.152344 173.964844 374.285156 174.398438 372.132812 174.054688 C 369.980469 173.710938 368.277344 172.785156 367.035156 171.257812 C 366.640625 170.773438 366.445312 170.53125 366.050781 170.050781 C 364.722656 168.417969 364.179688 166.53125 364.441406 164.386719 C 364.703125 162.242188 365.691406 160.511719 367.390625 159.222656 C 380.816406 149.046875 387.707031 144.207031 401.773438 135.023438 C 403.558594 133.863281 405.535156 133.503906 407.6875 133.945312 C 409.839844 134.386719 411.5 135.488281 412.675781 137.226562 C 413.023438 137.742188 413.199219 138 413.546875 138.515625 C 414.722656 140.257812 415.09375 142.15625 414.683594 144.222656 C 414.273438 146.285156 413.207031 147.875 411.472656 149.007812 C 407.421875 151.652344 405.410156 152.992188 401.414062 155.71875 C 412.449219 170.996094 417.964844 178.632812 428.996094 193.910156 C 430.226562 195.613281 430.714844 197.480469 430.472656 199.507812 C 430.234375 201.539062 429.359375 203.078125 427.832031 204.148438 Z M 427.832031 204.148438 " fill-opacity="1" fill-rule="nonzero"/><path fill="#1f417f" d="M 490.765625 166.097656 C 490.191406 166.394531 489.902344 166.546875 489.328125 166.84375 C 487.574219 167.757812 485.675781 167.898438 483.609375 167.257812 C 483.109375 167.113281 482.664062 166.917969 482.28125 166.667969 C 474.414062 162.546875 470.429688 160.542969 462.347656 156.652344 C 460.652344 157.605469 459.808594 158.085938 458.125 159.050781 C 461.074219 163.851562 462.550781 166.25 465.503906 171.050781 C 466.601562 172.835938 466.949219 174.726562 466.554688 176.722656 C 466.164062 178.722656 465.175781 180.183594 463.574219 181.128906 C 463.078125 181.417969 462.828125 181.566406 462.332031 181.859375 C 460.734375 182.808594 458.933594 183 456.914062 182.425781 C 454.898438 181.859375 453.308594 180.703125 452.164062 178.945312 C 439.859375 160.085938 433.707031 150.65625 421.402344 131.796875 C 420.253906 130.039062 419.914062 128.117188 420.40625 126.027344 C 420.894531 123.941406 422.042969 122.351562 423.84375 121.285156 C 431.46875 116.757812 435.324219 114.5625 443.101562 110.316406 C 447.085938 108.179688 451.40625 107.070312 455.875 107.128906 C 460.390625 107.183594 464.613281 108.53125 468.398438 111 C 472.1875 113.46875 475.09375 116.660156 477.167969 120.519531 C 477.378906 120.953125 477.480469 121.167969 477.691406 121.601562 C 479.597656 125.625 480.464844 129.796875 480.359375 134.109375 C 480.253906 138.421875 479.015625 142.316406 476.660156 145.835938 C 482.28125 148.707031 485.0625 150.171875 490.574219 153.15625 C 491.671875 153.835938 492.546875 154.769531 493.199219 155.972656 C 493.292969 156.144531 493.339844 156.230469 493.433594 156.40625 C 493.910156 157.285156 494.191406 158.183594 494.277344 159.105469 C 494.398438 160.71875 494.101562 162.210938 493.382812 163.578125 C 492.972656 164.273438 492.410156 164.894531 491.691406 165.453125 C 491.449219 165.691406 491.136719 165.90625 490.765625 166.097656 Z M 458.542969 139.410156 C 459.355469 138.96875 460.242188 138.503906 460.941406 137.988281 C 461.453125 137.613281 461.914062 137.089844 462.296875 136.601562 C 462.679688 136.113281 463.007812 135.589844 463.273438 135.027344 C 463.316406 134.871094 463.335938 134.792969 463.378906 134.632812 C 463.695312 133.636719 463.824219 132.585938 463.6875 131.585938 C 463.589844 130.875 463.390625 130.160156 463.160156 129.496094 C 462.898438 129 462.769531 128.753906 462.507812 128.257812 C 462.222656 127.800781 462.082031 127.570312 461.796875 127.113281 C 461.316406 126.539062 460.78125 125.957031 460.210938 125.523438 C 459.699219 125.132812 459.097656 124.824219 458.539062 124.578125 C 457.980469 124.328125 457.414062 124.132812 456.839844 123.988281 C 456.035156 123.964844 455.632812 123.957031 454.824219 123.9375 C 454.175781 124.0625 453.484375 124.1875 452.925781 124.394531 C 452.039062 124.726562 451.074219 125.296875 450.15625 125.800781 C 446.425781 127.851562 444.570312 128.894531 440.875 131.011719 C 444.214844 136.4375 445.882812 139.152344 449.222656 144.582031 C 452.945312 142.449219 456.078125 140.746094 458.542969 139.410156 Z M 458.542969 139.410156 " fill-opacity="1" fill-rule="nonzero"/><path fill="#1f417f" d="M 553.339844 138.402344 C 552.765625 138.617188 552.480469 138.722656 551.90625 138.9375 C 550.867188 139.332031 549.65625 139.425781 548.269531 139.230469 C 546.886719 139.03125 545.71875 138.480469 544.773438 137.570312 C 542.367188 135.113281 541.160156 133.890625 538.722656 131.453125 C 538.480469 131.585938 534.585938 133.097656 527.132812 136.21875 C 519.683594 139.34375 515.890625 141.054688 515.652344 141.121094 C 515.832031 143.675781 515.925781 144.953125 516.121094 147.507812 C 516.265625 148.210938 516.257812 148.941406 516.234375 149.589844 C 516.203125 150.464844 516.058594 151.414062 515.640625 152.261719 C 514.824219 153.800781 513.785156 154.859375 512.503906 155.453125 C 511.933594 155.71875 511.648438 155.851562 511.078125 156.117188 C 508.851562 157.15625 506.453125 156.878906 503.859375 155.289062 C 502.734375 154.503906 501.847656 153.496094 501.199219 152.257812 C 500.554688 151.019531 500.238281 149.730469 500.265625 148.394531 C 498.035156 124.578125 497.34375 112.558594 496.84375 88.355469 C 496.890625 87.035156 497.367188 85.808594 498.289062 84.675781 C 499.207031 83.542969 500.246094 82.730469 501.398438 82.246094 C 502.066406 81.964844 502.402344 81.824219 503.074219 81.542969 C 504.257812 81.046875 505.609375 80.859375 507.117188 80.976562 C 508.628906 81.089844 509.890625 81.585938 510.902344 82.464844 C 514.636719 85.921875 530.171875 99.710938 554.671875 125.582031 C 555.71875 126.472656 556.496094 127.5625 557.007812 128.859375 C 557.519531 130.152344 557.695312 131.460938 557.542969 132.78125 C 557.386719 134.105469 556.933594 135.265625 556.1875 136.261719 C 555.4375 137.261719 554.492188 137.972656 553.339844 138.402344 Z M 525.542969 118.585938 C 521.035156 114.28125 518.757812 112.144531 514.15625 107.90625 C 514.316406 114.007812 514.425781 117.050781 514.695312 123.132812 C 519.015625 121.273438 521.1875 120.363281 525.542969 118.585938 Z M 525.542969 118.585938 " fill-opacity="1" fill-rule="nonzero"/><path fill="#1f417f" d="M 614.542969 119.234375 C 612.007812 119.882812 609.871094 119.664062 608.183594 118.535156 C 606.925781 117.699219 605.679688 116.746094 604.460938 115.742188 C 603.730469 115.160156 603.367188 114.867188 602.636719 114.285156 C 590.371094 104.945312 584.03125 100.410156 570.945312 91.664062 C 574.980469 103.308594 576.996094 109.128906 581.03125 120.773438 C 581.714844 122.742188 581.636719 124.652344 580.820312 126.507812 C 580 128.367188 578.699219 129.578125 576.898438 130.164062 C 576.367188 130.339844 576.101562 130.425781 575.574219 130.601562 C 573.777344 131.191406 571.972656 130.996094 570.140625 130.003906 C 568.308594 129.015625 567.019531 127.554688 566.285156 125.601562 C 558.398438 104.679688 554.457031 94.21875 546.570312 73.292969 C 545.832031 71.339844 545.917969 69.40625 546.835938 67.492188 C 547.753906 65.574219 549.230469 64.273438 551.253906 63.609375 C 553.949219 62.726562 556.289062 62.753906 558.117188 63.738281 C 559.570312 64.519531 560.988281 65.429688 562.335938 66.355469 C 563.128906 66.910156 575.445312 74.367188 597.117188 90.332031 C 593.542969 78.429688 591.757812 72.480469 588.183594 60.578125 C 587.585938 58.585938 587.808594 56.660156 588.875 54.804688 C 589.941406 52.949219 591.511719 51.746094 593.578125 51.210938 C 594.183594 51.054688 594.488281 50.976562 595.097656 50.820312 C 597.164062 50.292969 599.160156 50.578125 601.066406 51.671875 C 602.972656 52.761719 604.191406 54.320312 604.738281 56.324219 C 610.570312 77.847656 613.484375 88.609375 619.316406 110.132812 C 619.863281 112.140625 619.652344 114.039062 618.707031 115.835938 C 617.761719 117.640625 616.378906 118.765625 614.542969 119.234375 Z M 614.542969 119.234375 " fill-opacity="1" fill-rule="nonzero"/><path fill="#1f417f" d="M 654.003906 111.476562 C 653.722656 111.527344 653.578125 111.554688 653.296875 111.609375 C 649.355469 112.285156 645.386719 112.011719 641.339844 110.796875 C 637.292969 109.582031 633.6875 107.523438 630.503906 104.632812 C 627.21875 101.648438 624.886719 97.921875 623.71875 93.484375 C 623.203125 91.515625 623.488281 89.632812 624.5625 87.886719 C 625.636719 86.140625 627.125 85.058594 629.015625 84.644531 C 629.589844 84.519531 629.878906 84.457031 630.453125 84.335938 C 632.4375 83.910156 634.285156 84.28125 635.980469 85.445312 C 637.675781 86.613281 638.851562 88.253906 639.351562 90.253906 C 639.449219 90.632812 639.59375 90.964844 639.8125 91.222656 C 641.078125 92.984375 643.109375 94.238281 645.90625 95 C 646.828125 95.15625 647.765625 95.246094 648.722656 95.269531 C 649.453125 95.148438 649.820312 95.089844 650.554688 94.96875 C 651.769531 94.742188 653.023438 94.480469 654.167969 94.105469 C 655.605469 93.636719 657.027344 92.921875 658.332031 92.164062 C 658.847656 91.738281 659.394531 91.28125 659.824219 90.800781 C 660.261719 90.308594 660.578125 89.621094 660.789062 88.878906 C 660.820312 88.335938 660.835938 88.0625 660.867188 87.519531 C 660.738281 86.738281 660.671875 86.347656 660.542969 85.566406 C 660.394531 85.269531 660.316406 85.125 660.164062 84.828125 C 659.863281 84.414062 659.402344 84.003906 658.785156 83.609375 C 656.789062 82.714844 654.105469 82.328125 650.75 82.46875 C 649.664062 82.546875 649.117188 82.585938 648.03125 82.671875 C 644.484375 82.996094 640.941406 83.074219 637.394531 82.90625 C 633.847656 82.738281 630.441406 81.699219 627.144531 79.789062 C 624.9375 78.414062 623.144531 76.699219 621.777344 74.621094 C 620.40625 72.546875 619.414062 70.308594 618.808594 67.910156 C 617.941406 64.488281 617.746094 60.882812 618.457031 57.390625 C 619.207031 53.722656 621.109375 50.386719 623.878906 47.605469 C 625.25 46.238281 626.863281 45.078125 628.464844 44.078125 C 629.53125 43.410156 630.691406 42.738281 631.898438 42.230469 C 634.492188 41.109375 637.179688 40.292969 639.949219 39.777344 C 640.878906 39.644531 641.34375 39.582031 642.273438 39.453125 C 646.4375 38.992188 650.542969 39.34375 654.550781 40.503906 C 658.558594 41.660156 661.882812 43.730469 664.519531 46.675781 C 667.152344 49.625 668.882812 53.140625 669.578125 57.082031 C 669.933594 59.074219 669.457031 60.957031 668.226562 62.65625 C 666.996094 64.359375 665.398438 65.355469 663.414062 65.671875 C 662.800781 65.769531 662.496094 65.816406 661.882812 65.914062 C 659.867188 66.238281 658.019531 65.796875 656.320312 64.582031 C 654.617188 63.363281 653.527344 61.730469 653.0625 59.671875 C 653.011719 59.398438 652.984375 59.265625 652.929688 58.992188 C 652.816406 58.746094 652.679688 58.503906 652.515625 58.261719 C 652.351562 58.023438 652.164062 57.785156 651.953125 57.558594 C 651.5625 57.304688 651.367188 57.179688 650.976562 56.925781 C 650.386719 56.660156 649.75 56.371094 649.175781 56.238281 C 648.140625 56 646.832031 55.941406 645.746094 56 C 644.925781 56.046875 644.039062 56.210938 643.191406 56.371094 C 642.25 56.542969 641.257812 56.75 640.351562 57.058594 C 639.3125 57.40625 638.265625 57.960938 637.28125 58.554688 C 636.761719 58.957031 636.261719 59.378906 635.789062 59.804688 C 635.53125 60.199219 635.402344 60.394531 635.144531 60.789062 C 635.074219 61.074219 635 61.394531 634.929688 61.738281 C 634.855469 62.089844 634.816406 62.472656 634.804688 62.875 C 634.808594 63.078125 634.8125 63.179688 634.816406 63.378906 C 634.957031 63.996094 635.027344 64.304688 635.164062 64.921875 C 635.292969 65.199219 635.375 65.335938 635.40625 65.328125 C 635.765625 65.59375 636.332031 65.816406 637.109375 66 C 639.308594 66.300781 641.488281 66.378906 643.648438 66.242188 C 644.90625 66.144531 645.535156 66.097656 646.789062 66.007812 C 649.746094 65.699219 652.722656 65.640625 655.691406 65.839844 C 660.296875 66.148438 664.546875 67.605469 668.367188 70.152344 C 668.449219 70.242188 668.523438 70.304688 668.59375 70.34375 C 668.667969 70.382812 668.738281 70.429688 668.8125 70.484375 C 673.136719 74.09375 675.683594 78.660156 676.558594 84.121094 C 676.898438 86.234375 676.957031 88.371094 676.742188 90.535156 C 675.921875 96.90625 673.085938 101.949219 668.3125 105.46875 C 664.207031 108.492188 659.382812 110.46875 654.003906 111.476562 Z M 654.003906 111.476562 " fill-opacity="1" fill-rule="nonzero"/><path fill="#1f417f" d="M 696.347656 104.105469 C 695.683594 104.183594 695.351562 104.222656 694.6875 104.300781 C 692.890625 104.515625 691.222656 103.9375 689.667969 102.558594 C 688.113281 101.179688 687.183594 99.511719 686.898438 97.558594 C 683.683594 75.550781 682.074219 64.546875 678.859375 42.535156 C 678.558594 40.480469 679.0625 38.605469 680.390625 36.910156 C 681.71875 35.21875 683.433594 34.238281 685.519531 33.992188 C 699.742188 32.296875 706.878906 31.628906 721.175781 30.652344 C 723.308594 30.507812 725.210938 31.148438 726.867188 32.5625 C 728.519531 33.976562 729.40625 35.722656 729.539062 37.792969 C 729.582031 38.460938 729.605469 38.796875 729.648438 39.464844 C 729.777344 41.503906 729.125 43.320312 727.707031 44.921875 C 726.289062 46.523438 724.546875 47.386719 722.472656 47.527344 C 712.230469 48.226562 707.117188 48.671875 696.917969 49.75 C 697.433594 54.125 697.695312 56.308594 698.210938 60.683594 C 706.648438 59.792969 710.871094 59.414062 719.335938 58.785156 C 721.339844 58.636719 723.148438 59.269531 724.746094 60.679688 C 726.339844 62.089844 727.203125 63.820312 727.347656 65.851562 C 727.390625 66.480469 727.414062 66.796875 727.460938 67.429688 C 727.605469 69.460938 726.996094 71.277344 725.65625 72.882812 C 724.316406 74.488281 722.679688 75.363281 720.730469 75.507812 C 712.5 76.117188 708.390625 76.488281 700.1875 77.355469 C 701.058594 84.707031 701.496094 88.382812 702.367188 95.734375 C 702.609375 97.792969 702.125 99.648438 700.925781 101.300781 C 699.722656 102.960938 698.203125 103.886719 696.347656 104.105469 Z M 696.347656 104.105469 " fill-opacity="1" fill-rule="nonzero"/><path fill="#1f417f" d="M 782.496094 99.953125 C 769.636719 99.699219 763.195312 99.734375 750.335938 100.132812 C 748.4375 100.191406 746.769531 99.496094 745.3125 98.03125 C 743.855469 96.574219 743.070312 94.816406 742.972656 92.746094 C 741.925781 70.550781 741.40625 59.453125 740.359375 37.253906 C 740.261719 35.1875 740.949219 33.363281 742.4375 31.792969 C 743.925781 30.21875 745.746094 29.394531 747.882812 29.328125 C 762.210938 28.886719 769.382812 28.847656 783.710938 29.121094 C 785.816406 29.160156 787.628906 29.964844 789.140625 31.519531 C 790.648438 33.070312 791.359375 34.886719 791.289062 36.957031 C 791.265625 37.628906 791.253906 37.964844 791.230469 38.632812 C 791.164062 40.675781 790.335938 42.425781 788.765625 43.898438 C 787.195312 45.367188 785.394531 46.078125 783.347656 46.039062 C 773.0625 45.839844 767.917969 45.835938 757.632812 46.019531 C 757.714844 50.164062 757.757812 52.234375 757.839844 56.378906 C 766.335938 56.230469 770.582031 56.21875 779.078125 56.332031 C 781.09375 56.359375 782.835938 57.144531 784.285156 58.6875 C 785.738281 60.234375 786.429688 62.027344 786.371094 64.066406 C 786.355469 64.699219 786.347656 65.011719 786.328125 65.644531 C 786.273438 67.714844 785.492188 69.488281 783.996094 70.96875 C 782.503906 72.453125 780.785156 73.175781 778.828125 73.152344 C 770.566406 73.039062 766.433594 73.050781 758.171875 73.195312 C 758.253906 77.160156 758.292969 79.144531 758.371094 83.113281 C 768.28125 82.9375 773.242188 82.941406 783.152344 83.140625 C 785.046875 83.179688 786.65625 84 787.96875 85.597656 C 789.277344 87.195312 789.894531 88.96875 789.828125 90.910156 C 789.804688 91.539062 789.792969 91.855469 789.773438 92.488281 C 789.699219 94.558594 788.9375 96.324219 787.5 97.796875 C 786.058594 99.277344 784.398438 99.988281 782.496094 99.953125 Z M 782.496094 99.953125 " fill-opacity="1" fill-rule="nonzero"/><path fill="#1f417f" d="M 838.78125 103.5625 C 838.132812 103.492188 837.808594 103.457031 837.160156 103.390625 C 835.183594 103.179688 833.546875 102.257812 832.242188 100.601562 C 831.917969 100.210938 831.671875 99.804688 831.503906 99.390625 C 827.527344 91.707031 825.460938 87.878906 821.167969 80.261719 C 819.222656 80.109375 818.246094 80.035156 816.300781 79.898438 C 815.859375 85.449219 815.640625 88.222656 815.203125 93.769531 C 815.039062 95.835938 814.195312 97.574219 812.691406 98.988281 C 811.191406 100.410156 809.511719 101.054688 807.648438 100.945312 C 807.070312 100.910156 806.78125 100.894531 806.203125 100.863281 C 804.335938 100.753906 802.757812 99.917969 801.449219 98.335938 C 800.144531 96.753906 799.535156 94.933594 799.640625 92.867188 C 800.792969 70.671875 801.367188 59.578125 802.515625 37.386719 C 802.625 35.316406 803.488281 33.5625 805.125 32.128906 C 806.761719 30.695312 808.636719 30.03125 810.738281 30.152344 C 819.636719 30.660156 824.085938 30.984375 832.960938 31.769531 C 837.488281 32.203125 841.679688 33.660156 845.296875 36.144531 C 848.953125 38.660156 851.613281 42.070312 853.242188 46.160156 C 854.871094 50.253906 855.355469 54.457031 854.753906 58.753906 C 854.671875 59.222656 854.628906 59.457031 854.542969 59.925781 C 853.707031 64.269531 851.9375 68.164062 849.285156 71.648438 C 846.636719 75.125 843.304688 77.644531 839.285156 79.242188 C 842.179688 84.667969 843.585938 87.390625 846.320312 92.84375 C 846.816406 94 846.972656 95.242188 846.792969 96.585938 C 846.765625 96.777344 846.75 96.875 846.726562 97.070312 C 846.59375 98.050781 846.289062 98.945312 845.8125 99.746094 C 844.949219 101.132812 843.820312 102.195312 842.417969 102.925781 C 841.671875 103.273438 840.84375 103.476562 839.921875 103.539062 C 839.582031 103.601562 839.199219 103.609375 838.78125 103.5625 Z M 828.300781 64.058594 C 829.226562 64.140625 830.222656 64.246094 831.101562 64.210938 C 831.746094 64.183594 832.433594 64.003906 833.035156 63.816406 C 833.636719 63.625 834.214844 63.375 834.769531 63.0625 C 834.898438 62.957031 834.960938 62.902344 835.089844 62.796875 C 835.9375 62.152344 836.671875 61.363281 837.152344 60.46875 C 837.492188 59.835938 837.753906 59.136719 837.960938 58.464844 C 838.039062 57.917969 838.082031 57.644531 838.164062 57.097656 C 838.203125 56.5625 838.222656 56.296875 838.261719 55.765625 C 838.214844 55.035156 838.121094 54.261719 837.914062 53.597656 C 837.726562 53 837.414062 52.414062 837.109375 51.910156 C 836.796875 51.398438 836.453125 50.925781 836.070312 50.492188 C 835.425781 50.035156 835.101562 49.804688 834.453125 49.347656 C 833.847656 49.097656 833.203125 48.816406 832.628906 48.683594 C 831.703125 48.46875 830.578125 48.40625 829.53125 48.316406 C 825.265625 47.949219 823.132812 47.78125 818.863281 47.484375 C 818.367188 53.757812 818.117188 56.894531 817.621094 63.171875 C 821.925781 63.472656 825.496094 63.800781 828.300781 64.058594 Z M 828.300781 64.058594 " fill-opacity="1" fill-rule="nonzero"/><path fill="#1f417f" d="M 903.644531 114.101562 C 903.078125 113.976562 902.796875 113.917969 902.234375 113.796875 C 900.378906 113.398438 898.953125 112.320312 897.929688 110.5625 C 896.910156 108.804688 896.621094 106.914062 897.078125 104.886719 C 898.769531 97.421875 899.617188 93.6875 901.308594 86.21875 C 892.042969 84.339844 887.390625 83.484375 878.054688 81.941406 C 876.664062 89.460938 875.964844 93.222656 874.574219 100.746094 C 874.195312 102.785156 873.179688 104.4375 871.539062 105.707031 C 869.890625 106.976562 868.140625 107.464844 866.265625 107.175781 C 865.710938 107.089844 865.4375 107.046875 864.882812 106.964844 C 863.007812 106.679688 861.511719 105.699219 860.390625 104.003906 C 859.273438 102.3125 858.863281 100.445312 859.1875 98.394531 C 862.640625 76.417969 864.371094 65.429688 867.824219 43.449219 C 868.144531 41.402344 869.179688 39.734375 870.9375 38.457031 C 872.703125 37.179688 874.648438 36.695312 876.757812 37.015625 C 877.382812 37.109375 877.691406 37.160156 878.316406 37.253906 C 880.425781 37.578125 882.117188 38.617188 883.386719 40.359375 C 884.648438 42.097656 885.078125 43.988281 884.699219 46.027344 C 883.269531 53.765625 882.554688 57.632812 881.121094 65.371094 C 890.71875 66.957031 895.503906 67.839844 905.035156 69.773438 C 906.773438 62.09375 907.644531 58.253906 909.382812 50.570312 C 909.84375 48.546875 910.992188 46.945312 912.855469 45.78125 C 914.714844 44.617188 916.699219 44.253906 918.78125 44.703125 C 919.417969 44.839844 919.734375 44.90625 920.371094 45.046875 C 922.453125 45.5 924.066406 46.636719 925.195312 48.445312 C 926.316406 50.253906 926.617188 52.167969 926.101562 54.183594 C 920.589844 75.78125 917.835938 86.582031 912.320312 108.179688 C 911.808594 110.195312 910.6875 111.777344 908.980469 112.949219 C 907.269531 114.121094 905.496094 114.503906 903.644531 114.101562 Z M 903.644531 114.101562 " fill-opacity="1" fill-rule="nonzero"/><path fill="#1f417f" d="M 945.601562 125.816406 C 942.175781 124.808594 939.136719 123.246094 936.460938 121.097656 C 935.019531 119.847656 933.941406 118.859375 933.25 118.121094 C 929.148438 113.261719 926.863281 107.585938 926.464844 101.027344 C 926.265625 98.703125 926.363281 96.375 926.753906 94.0625 C 927.144531 91.746094 927.652344 89.4375 928.277344 87.148438 C 931.617188 74.941406 933.285156 68.835938 936.625 56.628906 C 937.171875 54.621094 938.398438 53.070312 940.308594 51.984375 C 942.21875 50.894531 944.199219 50.609375 946.226562 51.132812 C 946.839844 51.289062 947.144531 51.371094 947.753906 51.527344 C 949.816406 52.066406 951.371094 53.265625 952.417969 55.121094 C 953.464844 56.976562 953.679688 58.898438 953.078125 60.890625 C 949.421875 72.976562 947.589844 79.019531 943.933594 91.101562 C 943.464844 92.652344 942.921875 94.296875 942.660156 95.789062 C 942.441406 97.050781 942.355469 98.605469 942.464844 99.839844 C 942.550781 100.816406 942.824219 101.984375 943.140625 102.90625 C 943.410156 103.683594 943.890625 104.503906 944.386719 105.257812 C 944.886719 106.015625 945.480469 106.742188 946.160156 107.304688 C 946.890625 107.90625 947.761719 108.429688 948.625 108.886719 C 949.398438 109.132812 949.789062 109.253906 950.5625 109.503906 C 951.351562 109.714844 951.746094 109.820312 952.535156 110.03125 C 953.511719 110.113281 954.585938 110.203125 955.492188 110.089844 C 956.375 109.976562 957.472656 109.679688 958.339844 109.34375 C 959.160156 109.027344 960.066406 108.5 960.773438 107.96875 C 961.59375 107.355469 962.484375 106.5625 963.15625 105.800781 C 963.992188 104.851562 964.789062 103.597656 965.359375 102.4375 C 965.671875 101.808594 965.929688 101.089844 966.167969 100.402344 C 970.660156 87.449219 972.90625 80.972656 977.402344 68.015625 C 978.082031 66.046875 979.40625 64.574219 981.390625 63.609375 C 983.371094 62.640625 985.359375 62.480469 987.355469 63.128906 C 987.96875 63.332031 988.277344 63.433594 988.894531 63.632812 C 990.886719 64.289062 992.347656 65.585938 993.289062 67.507812 C 994.222656 69.429688 994.308594 71.367188 993.574219 73.316406 C 988.871094 85.785156 986.519531 92.019531 981.8125 104.488281 C 979.136719 111.578125 975.207031 116.9375 970.316406 120.667969 C 965.953125 123.996094 961.007812 126.035156 955.480469 126.671875 C 952.019531 127.019531 948.738281 126.734375 945.601562 125.816406 Z M 945.601562 125.816406 " fill-opacity="1" fill-rule="nonzero"/><path fill="#1f417f" d="M 1016.894531 150.710938 C 1016.300781 150.449219 1016.003906 150.320312 1015.410156 150.058594 C 1013.597656 149.269531 1012.335938 147.902344 1011.625 145.9375 C 1011.445312 145.464844 1011.339844 145.007812 1011.3125 144.5625 C 1010.007812 136.058594 1009.277344 131.800781 1007.652344 123.273438 C 1005.847656 122.550781 1004.945312 122.195312 1003.132812 121.488281 C 1000.925781 126.644531 999.820312 129.222656 997.613281 134.375 C 996.792969 136.296875 995.433594 137.703125 993.546875 138.605469 C 991.65625 139.511719 989.855469 139.636719 988.109375 138.980469 C 987.574219 138.777344 987.304688 138.675781 986.765625 138.472656 C 985.019531 137.820312 983.785156 136.558594 983.054688 134.667969 C 982.320312 132.777344 982.328125 130.867188 983.097656 128.929688 C 991.351562 108.132812 995.476562 97.734375 1003.730469 76.9375 C 1004.5 75 1005.886719 73.582031 1007.90625 72.695312 C 1009.925781 71.8125 1011.929688 71.734375 1013.890625 72.46875 C 1022.199219 75.574219 1026.328125 77.199219 1034.523438 80.582031 C 1038.6875 82.339844 1042.207031 84.976562 1044.847656 88.425781 C 1047.511719 91.910156 1048.941406 95.953125 1049.171875 100.335938 C 1049.402344 104.730469 1048.507812 108.878906 1046.550781 112.792969 C 1046.316406 113.214844 1046.203125 113.425781 1045.96875 113.847656 C 1043.773438 117.734375 1040.835938 120.914062 1037.1875 123.441406 C 1033.542969 125.960938 1029.5625 127.363281 1025.226562 127.6875 C 1026.222656 133.71875 1026.683594 136.730469 1027.523438 142.75 C 1027.621094 143.996094 1027.375 145.230469 1026.769531 146.453125 C 1026.679688 146.632812 1026.636719 146.71875 1026.550781 146.894531 C 1026.105469 147.789062 1025.527344 148.550781 1024.816406 149.171875 C 1023.550781 150.238281 1022.128906 150.910156 1020.5625 151.1875 C 1019.738281 151.292969 1018.882812 151.238281 1017.988281 151.027344 C 1017.640625 150.980469 1017.277344 150.878906 1016.894531 150.710938 Z M 1019.667969 109.953125 C 1020.519531 110.308594 1021.4375 110.707031 1022.285156 110.929688 C 1022.90625 111.097656 1023.613281 111.132812 1024.25 111.128906 C 1024.886719 111.128906 1025.519531 111.0625 1026.144531 110.925781 C 1026.296875 110.863281 1026.375 110.832031 1026.53125 110.769531 C 1027.550781 110.410156 1028.496094 109.875 1029.246094 109.164062 C 1029.777344 108.664062 1030.25 108.078125 1030.664062 107.5 C 1030.917969 107.003906 1031.046875 106.753906 1031.300781 106.257812 C 1031.507812 105.761719 1031.613281 105.511719 1031.824219 105.019531 C 1032.011719 104.304688 1032.171875 103.546875 1032.1875 102.847656 C 1032.203125 102.222656 1032.09375 101.570312 1031.964844 101 C 1031.835938 100.425781 1031.664062 99.871094 1031.433594 99.34375 C 1030.96875 98.710938 1030.734375 98.398438 1030.265625 97.769531 C 1029.773438 97.351562 1029.25 96.894531 1028.746094 96.597656 C 1027.933594 96.117188 1026.886719 95.722656 1025.914062 95.324219 C 1021.976562 93.710938 1019.996094 92.917969 1016.03125 91.371094 C 1013.535156 97.203125 1012.285156 100.117188 1009.789062 105.945312 C 1013.785156 107.507812 1017.082031 108.878906 1019.667969 109.953125 Z M 1019.667969 109.953125 " fill-opacity="1" fill-rule="nonzero"/><path fill="#1f417f" d="M 1062.859375 174.457031 C 1060.582031 173.195312 1058.472656 171.707031 1056.527344 169.984375 C 1052.152344 165.9375 1049.003906 160.980469 1047.132812 155.0625 C 1045.664062 150.425781 1045.195312 145.558594 1045.707031 140.535156 C 1046.222656 135.507812 1047.617188 130.726562 1049.957031 126.214844 C 1051.414062 123.414062 1053.195312 120.804688 1055.324219 118.398438 C 1059.859375 113.472656 1065.34375 109.972656 1071.8125 108 C 1078.277344 106.03125 1084.863281 105.851562 1091.464844 107.488281 C 1094.613281 108.304688 1097.617188 109.5 1100.453125 111.066406 C 1103.671875 112.851562 1106.582031 115.070312 1109.152344 117.703125 C 1113.714844 122.566406 1116.640625 128.261719 1117.894531 134.703125 C 1118.269531 136.730469 1117.902344 138.699219 1116.773438 140.46875 C 1116.28125 141.242188 1115.539062 141.964844 1114.613281 142.628906 C 1113.6875 143.289062 1112.792969 143.6875 1111.925781 143.820312 C 1111.289062 143.898438 1110.96875 143.9375 1110.335938 144.019531 C 1109 144.335938 1107.695312 144.324219 1106.410156 143.976562 C 1105.671875 143.6875 1104.960938 143.378906 1104.351562 143.035156 C 1103.582031 142.601562 1102.894531 141.921875 1102.324219 141.101562 C 1101.753906 140.28125 1101.371094 139.425781 1101.191406 138.550781 C 1100.964844 137.453125 1100.660156 136.390625 1100.300781 135.367188 C 1099.628906 133.789062 1098.8125 132.21875 1097.816406 130.886719 C 1096.785156 129.5 1095.449219 128.148438 1094.0625 127.105469 C 1093.320312 126.546875 1092.488281 126.050781 1091.683594 125.605469 C 1090.84375 125.144531 1089.964844 124.683594 1089.09375 124.355469 C 1087.546875 123.773438 1085.703125 123.304688 1084.039062 123.148438 C 1082.324219 122.992188 1080.308594 123.074219 1078.597656 123.359375 C 1076.996094 123.628906 1075.207031 124.1875 1073.710938 124.859375 C 1072.199219 125.535156 1070.59375 126.539062 1069.28125 127.617188 C 1068.054688 128.621094 1066.78125 129.929688 1065.84375 131.234375 C 1065.324219 131.953125 1064.859375 132.820312 1064.40625 133.636719 C 1063.957031 134.449219 1063.464844 135.308594 1063.136719 136.121094 C 1062.570312 137.535156 1062.128906 139.289062 1061.933594 140.828125 C 1061.738281 142.394531 1061.714844 144.28125 1061.917969 145.875 C 1062.105469 147.367188 1062.5625 149.105469 1063.113281 150.492188 C 1063.710938 151.992188 1064.660156 153.617188 1065.628906 154.878906 C 1066.578125 156.117188 1067.859375 157.433594 1069.074219 158.335938 C 1069.742188 158.835938 1070.578125 159.277344 1071.332031 159.695312 C 1072.117188 160.128906 1072.925781 160.59375 1073.6875 160.890625 C 1074.988281 161.398438 1076.597656 161.769531 1077.9375 161.914062 C 1079.320312 162.0625 1080.925781 162.003906 1082.253906 161.796875 C 1083.582031 161.589844 1085.027344 161.140625 1086.285156 160.613281 C 1087.5 160.109375 1088.726562 159.402344 1089.914062 158.628906 C 1084.339844 155.347656 1081.527344 153.746094 1075.863281 150.621094 C 1074.210938 149.710938 1073.179688 148.25 1072.761719 146.230469 C 1072.339844 144.207031 1072.609375 142.339844 1073.59375 140.640625 C 1073.902344 140.105469 1074.054688 139.835938 1074.367188 139.300781 C 1075.398438 137.515625 1076.941406 136.304688 1079.011719 135.679688 C 1081.082031 135.0625 1083 135.238281 1084.753906 136.207031 C 1094.25 141.449219 1098.941406 144.183594 1108.195312 149.863281 C 1109.902344 150.910156 1110.96875 152.464844 1111.378906 154.507812 C 1111.792969 156.550781 1111.410156 158.433594 1110.257812 160.152344 C 1108.207031 163.195312 1105.78125 165.972656 1103.003906 168.492188 C 1100.222656 171.015625 1097.171875 173.070312 1093.871094 174.667969 C 1090.742188 176.183594 1087.542969 177.230469 1084.265625 177.828125 C 1076.253906 179.066406 1069.195312 177.964844 1062.859375 174.457031 Z M 1062.859375 174.457031 " fill-opacity="1" fill-rule="nonzero"/><path fill="#1f417f" d="M 1136.097656 222.039062 C 1135.644531 221.679688 1135.417969 221.5 1134.960938 221.144531 C 1133.46875 219.972656 1132.660156 218.371094 1132.523438 216.324219 C 1132.386719 214.28125 1132.964844 212.433594 1134.28125 210.789062 C 1139.128906 204.730469 1141.554688 201.703125 1146.402344 195.644531 C 1138.882812 189.898438 1135.066406 187.113281 1127.328125 181.703125 C 1122.726562 187.941406 1120.425781 191.058594 1115.820312 197.296875 C 1114.574219 198.988281 1112.921875 200.050781 1110.875 200.5 C 1108.820312 200.949219 1107.023438 200.644531 1105.460938 199.578125 C 1104.996094 199.265625 1104.765625 199.109375 1104.304688 198.796875 C 1102.738281 197.738281 1101.824219 196.210938 1101.566406 194.191406 C 1101.304688 192.183594 1101.769531 190.3125 1102.96875 188.589844 C 1115.863281 170.105469 1122.3125 160.859375 1135.207031 142.375 C 1136.40625 140.652344 1138.085938 139.578125 1140.238281 139.164062 C 1142.398438 138.757812 1144.375 139.148438 1146.136719 140.339844 C 1146.660156 140.691406 1146.917969 140.867188 1147.4375 141.21875 C 1149.199219 142.417969 1150.265625 144.085938 1150.636719 146.207031 C 1151.003906 148.328125 1150.550781 150.234375 1149.300781 151.925781 C 1144.566406 158.339844 1142.199219 161.546875 1137.464844 167.964844 C 1145.425781 173.527344 1149.351562 176.390625 1157.082031 182.300781 C 1162.066406 176.070312 1164.5625 172.953125 1169.546875 166.722656 C 1170.863281 165.078125 1172.613281 164.125 1174.808594 163.878906 C 1177.003906 163.632812 1178.953125 164.164062 1180.632812 165.484375 C 1181.144531 165.882812 1181.398438 166.085938 1181.910156 166.488281 C 1183.585938 167.8125 1184.535156 169.5625 1184.742188 171.703125 C 1184.953125 173.839844 1184.367188 175.71875 1183.007812 177.324219 C 1168.425781 194.578125 1161.132812 203.203125 1146.550781 220.457031 C 1145.191406 222.0625 1143.476562 223.015625 1141.417969 223.332031 C 1139.355469 223.648438 1137.585938 223.214844 1136.097656 222.039062 Z M 1136.097656 222.039062 " fill-opacity="1" fill-rule="nonzero"/><path fill="#1f417f" d="M 1188.027344 269.125 C 1187.59375 268.675781 1187.378906 268.453125 1186.945312 268.007812 C 1186.160156 267.195312 1185.589844 266.117188 1185.230469 264.765625 C 1184.871094 263.417969 1184.933594 262.136719 1185.429688 260.929688 C 1186.824219 257.796875 1187.511719 256.226562 1188.878906 253.074219 C 1188.65625 252.902344 1185.667969 249.882812 1179.738281 244.253906 C 1173.804688 238.625 1170.671875 235.828125 1170.515625 235.640625 C 1168.144531 236.769531 1166.960938 237.339844 1164.601562 238.488281 C 1163.984375 238.882812 1163.292969 239.15625 1162.660156 239.378906 C 1161.804688 239.6875 1160.847656 239.914062 1159.871094 239.855469 C 1158.078125 239.699219 1156.65625 239.15625 1155.585938 238.21875 C 1155.105469 237.804688 1154.867188 237.59375 1154.386719 237.179688 C 1152.515625 235.554688 1151.832031 233.277344 1152.324219 230.324219 C 1152.628906 229.003906 1153.242188 227.816406 1154.167969 226.757812 C 1155.09375 225.699219 1156.195312 224.925781 1157.488281 224.441406 C 1179.335938 213.335938 1190.542969 208.140625 1213.457031 198.53125 C 1214.730469 198.066406 1216.09375 198.042969 1217.539062 198.453125 C 1218.984375 198.867188 1220.171875 199.503906 1221.089844 200.375 C 1221.625 200.882812 1221.894531 201.136719 1222.425781 201.644531 C 1223.367188 202.539062 1224.078125 203.699219 1224.570312 205.128906 C 1225.058594 206.550781 1225.082031 207.894531 1224.644531 209.152344 C 1222.824219 213.875 1215.804688 233.277344 1200.792969 265.570312 C 1200.355469 266.867188 1199.625 267.996094 1198.589844 268.953125 C 1197.558594 269.910156 1196.375 270.554688 1195.050781 270.90625 C 1193.730469 271.257812 1192.441406 271.269531 1191.195312 270.953125 C 1189.945312 270.636719 1188.894531 270.027344 1188.027344 269.125 Z M 1195.945312 236.152344 C 1198.273438 230.40625 1199.410156 227.519531 1201.640625 221.714844 C 1195.875 224.160156 1193.007812 225.410156 1187.3125 227.957031 C 1190.796875 231.195312 1192.523438 232.832031 1195.945312 236.152344 Z M 1195.945312 236.152344 " fill-opacity="1" fill-rule="nonzero"/><path fill="#1f417f" d="M 1215.539062 300.203125 C 1211.121094 294.777344 1208.867188 292.109375 1204.289062 286.867188 C 1203.015625 285.410156 1202.488281 283.652344 1202.699219 281.570312 C 1202.910156 279.492188 1203.789062 277.746094 1205.359375 276.335938 C 1222.222656 261.25 1230.648438 253.707031 1247.507812 238.617188 C 1249.082031 237.210938 1250.96875 236.578125 1253.171875 236.734375 C 1255.375 236.890625 1257.199219 237.789062 1258.632812 239.429688 C 1263.636719 245.15625 1266.097656 248.066406 1270.929688 253.988281 C 1274.113281 257.890625 1276.566406 262.207031 1278.269531 266.902344 C 1279.972656 271.589844 1280.628906 276.464844 1280.246094 281.460938 C 1280.269531 281.613281 1280.265625 281.746094 1280.226562 281.863281 C 1279.644531 286.878906 1277.980469 291.433594 1275.292969 295.53125 C 1272.605469 299.625 1269.289062 303.070312 1265.390625 305.90625 C 1264.507812 306.5 1264.066406 306.796875 1263.183594 307.390625 C 1259.210938 309.949219 1254.9375 311.800781 1250.375 312.992188 C 1245.808594 314.179688 1241.214844 314.328125 1236.671875 313.410156 C 1231.96875 312.460938 1227.574219 310.65625 1223.820312 308.023438 C 1220.722656 305.851562 1217.957031 303.167969 1215.539062 300.203125 Z M 1227.390625 287.640625 C 1228.640625 289.160156 1229.960938 290.761719 1231.34375 292.105469 C 1232.609375 293.335938 1234.226562 294.480469 1235.820312 295.320312 C 1237 295.945312 1238.402344 296.527344 1239.660156 296.816406 C 1240.734375 297.058594 1242.070312 297.203125 1243.183594 297.191406 C 1244.492188 297.175781 1246.003906 296.910156 1247.25 296.550781 C 1248.875 296.082031 1250.617188 295.324219 1252.101562 294.476562 C 1253.148438 293.875 1254.167969 293.128906 1255.125 292.390625 C 1256.105469 291.636719 1257.078125 290.839844 1257.910156 290 C 1259.214844 288.683594 1260.453125 287.09375 1261.363281 285.5 C 1262.015625 284.351562 1262.597656 282.988281 1262.917969 281.742188 C 1263.214844 280.597656 1263.390625 279.21875 1263.371094 278.054688 C 1263.347656 276.679688 1263.105469 275.023438 1262.734375 273.648438 C 1262.273438 271.941406 1261.402344 270.035156 1260.421875 268.472656 C 1259.558594 267.09375 1258.445312 265.703125 1257.351562 264.371094 C 1255.183594 261.71875 1254.089844 260.402344 1251.886719 257.789062 C 1240.308594 267.59375 1234.523438 272.496094 1222.945312 282.304688 C 1224.738281 284.425781 1225.625 285.492188 1227.390625 287.640625 Z M 1227.390625 287.640625 " fill-opacity="1" fill-rule="nonzero"/><path fill="#1f417f" d="M 1266.964844 376.648438 C 1266.648438 376.078125 1266.492188 375.789062 1266.175781 375.21875 C 1265.601562 374.179688 1265.296875 372.929688 1265.261719 371.457031 C 1265.222656 369.992188 1265.578125 368.710938 1266.339844 367.617188 C 1268.414062 364.820312 1269.445312 363.410156 1271.496094 360.585938 C 1271.320312 360.351562 1269.121094 356.476562 1264.667969 349.195312 C 1260.210938 341.914062 1257.8125 338.269531 1257.703125 338.039062 C 1255.140625 338.550781 1253.863281 338.8125 1251.3125 339.347656 C 1250.621094 339.582031 1249.882812 339.671875 1249.21875 339.730469 C 1248.324219 339.8125 1247.339844 339.789062 1246.402344 339.472656 C 1244.703125 338.839844 1243.445312 337.921875 1242.621094 336.699219 C 1242.253906 336.152344 1242.066406 335.878906 1241.699219 335.332031 C 1240.253906 333.207031 1240.113281 330.738281 1241.269531 327.898438 C 1241.871094 326.652344 1242.738281 325.617188 1243.878906 324.792969 C 1245.023438 323.972656 1246.273438 323.480469 1247.636719 323.332031 C 1271.398438 317.878906 1283.46875 315.59375 1307.914062 311.988281 C 1309.257812 311.863281 1310.585938 312.199219 1311.890625 313 C 1313.199219 313.804688 1314.203125 314.765625 1314.890625 315.890625 C 1315.296875 316.546875 1315.496094 316.875 1315.898438 317.53125 C 1316.601562 318.6875 1317.027344 320.054688 1317.171875 321.632812 C 1317.316406 323.203125 1317.03125 324.570312 1316.316406 325.726562 C 1313.460938 330.019531 1302.179688 347.769531 1280.160156 376.527344 C 1279.4375 377.726562 1278.46875 378.671875 1277.246094 379.363281 C 1276.023438 380.054688 1274.726562 380.390625 1273.363281 380.382812 C 1272 380.375 1270.75 380.035156 1269.617188 379.375 C 1268.476562 378.710938 1267.597656 377.800781 1266.964844 376.648438 Z M 1282.253906 345.347656 C 1285.835938 340.15625 1287.609375 337.539062 1291.109375 332.265625 C 1284.953125 333.195312 1281.882812 333.691406 1275.769531 334.746094 C 1278.40625 338.945312 1279.703125 341.066406 1282.253906 345.347656 Z M 1282.253906 345.347656 " fill-opacity="1" fill-rule="nonzero"/><path fill="#1f417f" d="M 1279.105469 401.484375 C 1277.949219 399.082031 1277.816406 396.5625 1278.707031 393.894531 C 1279.59375 391.222656 1281.234375 389.222656 1283.640625 387.921875 C 1285.929688 386.683594 1288.453125 386.417969 1291.210938 387.175781 C 1292.996094 387.769531 1294.449219 388.761719 1295.570312 390.148438 C 1296.070312 390.644531 1296.472656 391.210938 1296.78125 391.847656 C 1296.921875 392.140625 1296.988281 392.285156 1297.128906 392.574219 C 1297.410156 393.15625 1297.59375 393.761719 1297.671875 394.402344 C 1298.125 396.289062 1298.015625 398.214844 1297.347656 400.175781 C 1296.289062 402.890625 1294.523438 404.921875 1292.167969 406.023438 C 1289.722656 407.164062 1287.105469 407.230469 1284.589844 406.355469 C 1282.074219 405.476562 1280.246094 403.859375 1279.105469 401.484375 Z M 1279.105469 401.484375 " fill-opacity="1" fill-rule="nonzero"/><path fill="#1f417f" d="M 1300.980469 455.089844 C 1298.417969 447.84375 1297.8125 440.4375 1299.28125 432.828125 C 1300.488281 426.582031 1303.039062 420.851562 1306.851562 415.792969 C 1310.582031 410.847656 1315.113281 407.0625 1320.445312 404.53125 C 1321.292969 404.175781 1321.714844 404 1322.5625 403.644531 C 1328.628906 401.226562 1335 400.515625 1341.402344 401.855469 C 1347.597656 403.152344 1353.304688 406.1875 1358.273438 410.722656 C 1363.238281 415.257812 1367.042969 420.96875 1369.328125 427.636719 C 1372.019531 435.484375 1372.59375 443.589844 1371.207031 451.378906 C 1369.898438 458.707031 1366.859375 465.0625 1362.210938 470.378906 C 1361.203125 471.550781 1360.054688 472.339844 1358.761719 472.765625 C 1357.53125 473.167969 1356.226562 473.183594 1354.847656 472.8125 C 1351.9375 471.8125 1350.054688 469.851562 1349.175781 466.917969 C 1348.945312 466.152344 1348.832031 465.773438 1348.597656 465.011719 C 1348.171875 463.597656 1348.074219 462.152344 1348.308594 460.667969 C 1348.539062 459.179688 1349.097656 457.867188 1349.988281 456.714844 C 1351.710938 454.683594 1353.117188 452.046875 1354.183594 448.800781 C 1354.628906 446.96875 1354.976562 445.042969 1355.042969 443.179688 C 1355.113281 441.207031 1354.917969 439.058594 1354.496094 437.125 C 1354.269531 436.089844 1353.925781 435.035156 1353.566406 434.023438 C 1353.207031 433.007812 1352.820312 431.996094 1352.363281 431.101562 C 1351.507812 429.421875 1350.390625 427.707031 1349.203125 426.363281 C 1347.949219 424.945312 1346.34375 423.515625 1344.839844 422.535156 C 1343.464844 421.632812 1341.722656 420.839844 1340.144531 420.332031 C 1338.5625 419.820312 1336.703125 419.539062 1335.003906 419.5 C 1332.445312 419.4375 1329.855469 420.058594 1327.480469 421.105469 C 1326.628906 421.480469 1325.738281 421.886719 1324.980469 422.371094 C 1323.65625 423.21875 1322.230469 424.371094 1321.136719 425.546875 C 1320.007812 426.757812 1318.847656 428.351562 1318.003906 429.871094 C 1317.210938 431.296875 1316.503906 433.082031 1316.074219 434.714844 C 1315.609375 436.472656 1315.335938 438.523438 1315.300781 440.332031 C 1315.269531 442.101562 1315.433594 444.125 1315.808594 445.789062 C 1316.015625 446.714844 1316.390625 447.71875 1316.726562 448.664062 C 1317.050781 449.585938 1317.414062 450.507812 1317.804688 451.4375 C 1318.765625 453.078125 1319.820312 454.78125 1321.015625 456.195312 C 1322.113281 457.488281 1323.523438 458.675781 1324.921875 459.734375 C 1325.765625 460.285156 1326.628906 460.792969 1327.511719 461.265625 C 1328.292969 461.613281 1328.683594 461.789062 1329.464844 462.140625 C 1330.523438 462.507812 1331.601562 462.777344 1332.609375 462.988281 C 1333.9375 463.265625 1335.152344 463.960938 1336.175781 464.972656 C 1337.203125 465.984375 1337.929688 467.179688 1338.351562 468.570312 C 1338.585938 469.339844 1338.703125 469.726562 1338.933594 470.496094 C 1339.359375 471.917969 1339.429688 473.363281 1339.148438 474.816406 C 1338.863281 476.269531 1338.25 477.554688 1337.3125 478.660156 C 1336.371094 479.773438 1335.300781 480.523438 1334.105469 480.914062 C 1332.8125 481.339844 1331.429688 481.394531 1329.964844 481.085938 C 1323.269531 479.609375 1317.363281 476.476562 1312.164062 471.769531 C 1306.960938 467.058594 1303.261719 461.546875 1300.980469 455.089844 Z M 1300.980469 455.089844 " fill-opacity="1" fill-rule="nonzero"/><path fill="#1f417f" d="M 1322.84375 535.253906 C 1322.78125 534.9375 1322.75 534.78125 1322.6875 534.464844 C 1321.929688 530.667969 1321.640625 526.796875 1321.824219 522.835938 C 1322.003906 518.871094 1322.699219 515.03125 1323.921875 511.292969 C 1325.652344 505.707031 1328.457031 500.550781 1332.398438 496.023438 C 1336.960938 490.785156 1342.503906 487.105469 1348.832031 485.128906 C 1351.867188 484.179688 1354.992188 483.6875 1358.214844 483.675781 C 1365.601562 483.746094 1372.445312 486.207031 1378.644531 491.191406 C 1383.335938 494.96875 1387.28125 500.046875 1390.363281 506.453125 C 1391.964844 510.089844 1393.199219 513.914062 1394 517.867188 C 1395.640625 525.929688 1395.238281 534.148438 1392.890625 542.164062 C 1390.542969 550.179688 1386.527344 556.695312 1380.980469 561.488281 C 1376.355469 565.488281 1371.078125 567.902344 1365.3125 568.84375 C 1362.9375 569.230469 1360.527344 569.363281 1358.085938 569.257812 C 1350.769531 568.722656 1343.96875 565.875 1338.066406 560.898438 C 1330.132812 554.210938 1325.117188 545.554688 1322.84375 535.253906 Z M 1339.101562 530.617188 C 1339.414062 531.882812 1339.566406 532.519531 1339.871094 533.792969 C 1340.5625 535.613281 1341.332031 537.449219 1342.273438 539.015625 C 1343.238281 540.625 1344.523438 542.324219 1345.824219 543.644531 C 1347.023438 544.863281 1348.558594 546.039062 1350 546.882812 C 1351.480469 547.75 1353.273438 548.550781 1354.871094 548.988281 C 1356.371094 549.402344 1358.222656 549.621094 1359.726562 549.554688 C 1360.585938 549.515625 1361.539062 549.316406 1362.414062 549.144531 C 1363.289062 548.972656 1364.246094 548.792969 1365.070312 548.5 C 1366.566406 547.96875 1368.222656 547.039062 1369.484375 546.066406 C 1370.875 544.992188 1372.308594 543.519531 1373.382812 542.082031 C 1374.445312 540.65625 1375.464844 538.847656 1376.148438 537.144531 C 1376.894531 535.300781 1377.503906 533.074219 1377.820312 531.074219 C 1378.125 529.136719 1378.15625 526.898438 1378 524.824219 C 1377.914062 523.746094 1377.71875 522.605469 1377.496094 521.484375 C 1377.277344 520.398438 1377.03125 519.269531 1376.683594 518.21875 C 1376.070312 516.363281 1375.1875 514.367188 1374.167969 512.726562 C 1373.121094 511.042969 1371.71875 509.335938 1370.359375 508.050781 C 1369.085938 506.851562 1367.484375 505.707031 1365.988281 504.914062 C 1364.488281 504.121094 1362.667969 503.488281 1361.007812 503.183594 C 1359.46875 502.902344 1357.632812 502.816406 1356.074219 503.019531 C 1355.207031 503.132812 1354.261719 503.402344 1353.367188 503.652344 C 1352.476562 503.902344 1351.511719 504.15625 1350.714844 504.507812 C 1349.3125 505.125 1347.730469 506.140625 1346.5 507.179688 C 1345.230469 508.253906 1343.851562 509.730469 1342.839844 511.167969 C 1341.875 512.542969 1340.933594 514.3125 1340.304688 515.902344 C 1339.609375 517.652344 1339.09375 519.75 1338.816406 521.644531 C 1338.386719 524.53125 1338.515625 527.285156 1338.9375 529.574219 C 1339.003906 529.988281 1339.035156 530.199219 1339.101562 530.617188 Z M 1339.101562 530.617188 " fill-opacity="1" fill-rule="nonzero"/><path fill="#1f417f" d="M 1336.027344 656.761719 C 1336.015625 656.019531 1336.011719 655.648438 1336 654.90625 C 1335.964844 652.398438 1336.671875 650.222656 1338.144531 648.347656 C 1339.613281 646.472656 1341.378906 645.484375 1343.449219 645.414062 C 1355.65625 644.972656 1361.757812 644.753906 1373.964844 644.316406 C 1368.71875 639.417969 1366.074219 637.035156 1360.753906 632.40625 C 1360.246094 632.105469 1359.800781 631.742188 1359.421875 631.316406 C 1359.300781 631.203125 1359.238281 631.144531 1359.113281 631.027344 C 1357.558594 629.492188 1356.710938 627.214844 1356.542969 624.199219 C 1356.476562 622.945312 1356.472656 621.816406 1356.597656 620.863281 C 1356.757812 619.621094 1357.171875 618.5 1357.753906 617.5625 C 1358.339844 616.628906 1359.011719 615.769531 1359.785156 614.972656 C 1364.535156 609.738281 1366.890625 607.082031 1371.546875 601.695312 C 1359.40625 602.992188 1353.339844 603.640625 1341.199219 604.9375 C 1339.136719 605.15625 1337.28125 604.464844 1335.621094 602.882812 C 1333.957031 601.296875 1333.019531 599.347656 1332.792969 597.007812 C 1332.722656 596.285156 1332.683594 595.925781 1332.613281 595.203125 C 1332.378906 592.867188 1332.914062 590.746094 1334.230469 588.816406 C 1335.542969 586.882812 1337.21875 585.769531 1339.273438 585.476562 C 1361.320312 582.359375 1372.339844 580.800781 1394.386719 577.683594 C 1396.441406 577.390625 1398.328125 578.089844 1400.039062 579.8125 C 1401.753906 581.535156 1402.75 583.714844 1403.011719 586.34375 C 1403.164062 587.867188 1403.164062 589.410156 1403.015625 590.972656 C 1402.867188 592.539062 1402.378906 593.929688 1401.558594 595.132812 C 1400.488281 596.464844 1399.953125 597.128906 1398.875 598.453125 C 1392.21875 606.441406 1386.277344 613.328125 1381.121094 619.230469 C 1379.992188 620.5 1379.425781 621.132812 1378.292969 622.394531 C 1384.1875 627.476562 1387.117188 630.097656 1392.925781 635.5 C 1396.039062 638.359375 1397.585938 639.8125 1400.671875 642.761719 C 1402.191406 644.238281 1402.953125 644.980469 1404.46875 646.480469 C 1405.414062 647.699219 1406.089844 649.195312 1406.484375 650.976562 C 1406.695312 651.773438 1406.808594 652.578125 1406.820312 653.382812 C 1406.835938 654.269531 1406.839844 654.714844 1406.851562 655.605469 C 1406.886719 658.433594 1406.144531 660.882812 1404.640625 662.941406 C 1403.136719 664.996094 1401.339844 666.015625 1399.269531 666.015625 L 1343.730469 666.015625 C 1341.65625 666.015625 1339.867188 665.074219 1338.347656 663.230469 C 1336.824219 661.386719 1336.054688 659.234375 1336.027344 656.761719 Z M 1336.027344 656.761719 " fill-opacity="1" fill-rule="nonzero"/><path fill="#00aeef" d="M 479.785156 968.636719 C 448.046875 997.15625 416.894531 1025.140625 384.382812 1054.351562 C 377.105469 1046.871094 369.375 1039.644531 362.46875 1031.707031 C 296.644531 956.074219 251.261719 870.203125 233.425781 770.878906 C 223.449219 715.332031 221.722656 659.523438 228.148438 603.285156 C 236.011719 534.429688 258.324219 470.667969 292.488281 410.777344 C 321.46875 359.96875 360.195312 317.390625 403.816406 278.835938 C 438.636719 248.0625 476.949219 222.6875 518.613281 202.375 C 571.875 176.410156 628.078125 159.414062 686.621094 150.929688 C 729.703125 144.683594 773.113281 144.90625 816.5625 148.015625 C 862.53125 151.308594 907.09375 160.894531 950.507812 175.996094 C 1010.390625 196.832031 1065.285156 226.855469 1114.683594 266.695312 C 1158.390625 301.945312 1196.839844 342.089844 1227.609375 389.285156 C 1270.375 454.886719 1298.636719 526.191406 1310.257812 603.6875 C 1316.570312 645.777344 1316.832031 688.234375 1313.199219 730.644531 C 1306.53125 808.539062 1282.257812 880.847656 1242.820312 948.082031 C 1221.621094 984.226562 1196.328125 1017.449219 1167.398438 1047.832031 C 1165.136719 1050.207031 1162.574219 1052.296875 1159.570312 1055.050781 C 1127.375 1026.425781 1095.628906 998.199219 1063.132812 969.308594 C 1072.25 958.4375 1081.324219 947.886719 1090.105469 937.097656 C 1139.535156 876.390625 1170.914062 807.730469 1181.863281 729.910156 C 1192.882812 651.605469 1180.324219 576.90625 1148.429688 505.058594 C 1120.679688 442.5625 1078.730469 391.316406 1024.050781 350.625 C 968.3125 309.140625 905.710938 283.320312 836.980469 273.5625 C 810.625 269.824219 783.734375 267.199219 757.191406 267.921875 C 665.035156 270.4375 581.617188 298.902344 508.496094 356.039062 C 433.628906 414.539062 386.207031 490.417969 365.414062 582.78125 C 357.105469 619.683594 354.484375 657.179688 357.175781 695.234375 C 360.609375 743.722656 370.726562 790.371094 389.699219 835.066406 C 406.683594 875.078125 430.078125 911.128906 458.273438 944.113281 C 465.375 952.425781 472.6875 960.558594 479.785156 968.636719 Z M 479.785156 968.636719 " fill-opacity="1" fill-rule="nonzero"/><path fill="#00aeef" d="M 429.5625 1098.296875 C 528.855469 995.878906 649.59375 950.871094 788.480469 955.660156 C 913.578125 959.976562 1022.121094 1005.265625 1110.347656 1098.28125 C 1085.832031 1121.320312 1062.5625 1143.183594 1038.039062 1166.226562 C 962.503906 1095.246094 873.550781 1058.257812 770.394531 1058.109375 C 666.859375 1057.960938 578.539062 1096.667969 502.097656 1167.625 C 477.859375 1144.457031 454.347656 1121.984375 429.5625 1098.296875 Z M 429.5625 1098.296875 " fill-opacity="1" fill-rule="nonzero"/><path fill="#00aeef" d="M 919.621094 1279.648438 C 818.136719 1190.652344 718.601562 1191.496094 620.179688 1281.695312 C 596.632812 1258.328125 573.308594 1235.179688 549.34375 1211.398438 C 550.75 1209.398438 551.90625 1206.992188 553.722656 1205.289062 C 604.410156 1157.746094 663.742188 1127.058594 732.789062 1118.011719 C 803.535156 1108.742188 869.847656 1124 930.179688 1162.0625 C 949.5625 1174.285156 966.988281 1189.691406 984.84375 1204.214844 C 992.628906 1210.546875 992.277344 1212.371094 984.96875 1219.347656 C 965.398438 1238.035156 945.683594 1256.570312 925.949219 1275.085938 C 923.855469 1277.050781 921.257812 1278.484375 919.621094 1279.648438 Z M 919.621094 1279.648438 " fill-opacity="1" fill-rule="nonzero"/><path fill="#00aeef" d="M 837.515625 1294.671875 C 817.242188 1268.1875 789.296875 1256.570312 755.445312 1261.925781 C 719.132812 1267.664062 691.191406 1295.402344 684.667969 1331.660156 C 680.394531 1355.390625 686.394531 1377.191406 699.179688 1396.503906 C 715.183594 1420.671875 733.148438 1443.527344 750.441406 1466.820312 C 755.941406 1474.253906 762.058594 1481.246094 768.757812 1489.5 C 773.175781 1484.84375 777.007812 1481.273438 780.316406 1477.265625 C 787.105469 1469.015625 793.746094 1460.644531 800.152344 1452.101562 C 816.800781 1430.007812 835.703125 1409.4375 846.851562 1383.65625 C 860.425781 1352.289062 858.234375 1321.710938 837.515625 1294.671875 Z M 769.34375 1378.007812 C 748.421875 1378.007812 731.453125 1361.039062 731.453125 1340.085938 C 731.453125 1319.132812 748.421875 1302.164062 769.34375 1302.164062 C 790.292969 1302.164062 807.261719 1319.132812 807.261719 1340.085938 C 807.261719 1361.035156 790.292969 1378.007812 769.34375 1378.007812 Z M 769.34375 1378.007812 " fill-opacity="1" fill-rule="nonzero"/><g clip-path="url(#0cecc7b087)"><g clip-path="url(#ebf6a2e66b)"><path fill="url(#ea5896cae3)" d="M 462.511719 701.269531 L 462.511719 779.179688 L 628.4375 779.179688 L 628.4375 701.269531 Z M 462.511719 701.269531 " fill-rule="nonzero"/></g></g><g clip-path="url(#47b9abe3b7)"><g clip-path="url(#654198c4e1)"><path fill="url(#ef0df5a1ba)" d="M 920.636719 701.269531 L 920.636719 779.179688 L 1086.5625 779.179688 L 1086.5625 701.269531 Z M 920.636719 701.269531 " fill-rule="nonzero"/></g></g><path fill="#1f417f" d="M 535.996094 631.09375 C 535.996094 631.09375 565.101562 686.785156 602.644531 714.207031 C 602.644531 714.207031 561.726562 644.875 559.476562 636.4375 L 552.867188 634.890625 L 569.320312 663.441406 L 551.742188 640.515625 Z M 535.996094 631.09375 " fill-opacity="1" fill-rule="nonzero"/><path fill="#1f417f" d="M 1017.394531 631.09375 C 1017.394531 631.09375 988.285156 686.785156 950.742188 714.207031 C 950.742188 714.207031 991.660156 644.875 993.910156 636.4375 L 1000.519531 634.890625 L 984.066406 663.441406 L 1001.644531 640.515625 Z M 1017.394531 631.09375 " fill-opacity="1" fill-rule="nonzero"/><path fill="#1f417f" d="M 1078.492188 628.5625 L 1110.972656 623.289062 C 1110.972656 623.289062 1109.8125 611.371094 1108.335938 608.945312 C 1106.859375 606.519531 1102.957031 603.671875 1096.945312 601.984375 C 1090.933594 600.296875 1073.394531 596.289062 1047.519531 596.148438 C 1047.519531 596.148438 1041.964844 597.132812 1041.894531 602.898438 C 1041.824219 608.664062 1041.894531 625.117188 1041.894531 625.117188 L 1037.113281 625.117188 C 1037.113281 625.117188 996.96875 526.464844 960.691406 503.683594 C 960.691406 503.683594 950.917969 497.074219 916.042969 494.542969 C 888.417969 492.539062 651.496094 492.539062 623.867188 494.542969 C 588.996094 497.074219 579.222656 503.683594 579.222656 503.683594 C 542.941406 526.464844 502.796875 625.117188 502.796875 625.117188 L 498.015625 625.117188 C 498.015625 625.117188 498.085938 608.664062 498.015625 602.898438 C 497.945312 597.132812 492.390625 596.148438 492.390625 596.148438 C 466.519531 596.289062 448.976562 600.296875 442.964844 601.984375 C 436.953125 603.671875 433.050781 606.519531 431.574219 608.945312 C 430.097656 611.371094 428.9375 623.289062 428.9375 623.289062 L 461.421875 628.5625 L 428.515625 626.453125 C 428.304688 638.6875 446.445312 640.796875 446.445312 640.796875 L 490.421875 646.914062 L 492.25 656.832031 C 500.476562 640.585938 520.09375 624.34375 520.09375 624.34375 C 574.125 629.597656 735.035156 627.507812 769.957031 626.984375 C 804.875 627.507812 965.789062 629.597656 1019.820312 624.34375 C 1019.820312 624.34375 1039.433594 640.585938 1047.660156 656.832031 L 1049.488281 646.914062 L 1093.464844 640.796875 C 1093.464844 640.796875 1111.605469 638.6875 1111.394531 626.453125 Z M 644.117188 616.117188 C 644.117188 616.117188 770.671875 498.410156 955.441406 523.722656 L 1006.679688 613.585938 L 964.507812 525.621094 C 964.507812 525.621094 997.34375 554.453125 1022.933594 621.109375 Z M 644.117188 616.117188 " fill-opacity="1" fill-rule="nonzero"/><path fill="#1f417f" d="M 776.695312 737.410156 C 724.21875 737.355469 671.402344 735.367188 618.265625 731.507812 L 661.210938 806.394531 C 698.546875 810.105469 739.5625 812.296875 776.480469 812.488281 L 776.480469 812.492188 C 776.550781 812.492188 776.621094 812.492188 776.695312 812.492188 C 776.765625 812.492188 776.835938 812.492188 776.90625 812.492188 L 776.90625 812.488281 C 813.824219 812.296875 850.960938 810.3125 888.296875 806.601562 L 892.640625 799.632812 L 894.796875 796.175781 L 931.394531 731.507812 C 878.257812 735.367188 829.167969 737.355469 776.695312 737.410156 Z M 638.582031 747.351562 L 707.671875 748.527344 L 724.929688 748.761719 C 730.683594 748.835938 736.4375 748.894531 742.1875 748.929688 C 753.691406 749.050781 765.195312 749.132812 776.695312 749.101562 C 788.191406 749.144531 799.695312 749.046875 811.199219 748.9375 C 816.949219 748.902344 822.703125 748.84375 828.457031 748.769531 L 845.714844 748.535156 L 914.804688 747.351562 L 914.828125 747.675781 C 868.847656 750.636719 822.773438 752.226562 776.695312 752.335938 C 730.613281 752.230469 684.539062 750.636719 638.558594 747.675781 Z M 829.503906 798.328125 L 822.917969 798.804688 L 816.324219 799.1875 C 811.925781 799.425781 807.527344 799.640625 803.125 799.832031 C 794.320312 800.160156 785.53125 800.332031 776.695312 800.421875 C 767.855469 800.324219 759.070312 800.164062 750.261719 799.824219 C 745.859375 799.632812 741.460938 799.417969 737.066406 799.183594 L 730.472656 798.796875 L 723.882812 798.320312 C 706.320312 797.019531 688.800781 795.140625 671.410156 792.347656 L 671.441406 792.023438 C 706.429688 795.289062 741.5625 797.058594 776.695312 797.1875 C 811.824219 797.058594 846.957031 795.289062 881.945312 792.023438 L 881.976562 792.347656 C 864.585938 795.148438 847.066406 797.03125 829.503906 798.328125 Z M 834.519531 784.1875 C 829.703125 784.425781 824.882812 784.621094 820.066406 784.75 L 805.609375 785.140625 C 795.964844 785.324219 786.359375 785.398438 776.6875 785.492188 C 767.042969 785.386719 757.417969 785.328125 747.777344 785.132812 L 733.320312 784.742188 C 728.503906 784.617188 723.683594 784.414062 718.867188 784.179688 C 699.605469 783.292969 680.328125 781.929688 661.210938 779.246094 L 661.238281 778.921875 C 680.433594 780.445312 699.683594 781.183594 718.929688 781.640625 C 738.179688 782.089844 757.4375 782.191406 776.695312 782.257812 C 795.949219 782.191406 815.207031 782.089844 834.457031 781.640625 C 853.707031 781.183594 872.957031 780.445312 892.148438 778.921875 L 892.175781 779.246094 C 873.0625 781.9375 853.785156 783.300781 834.519531 784.1875 Z M 840.894531 766.566406 C 819.503906 767.328125 798.101562 767.875 776.695312 767.9375 C 755.285156 767.878906 733.882812 767.328125 712.496094 766.566406 C 691.105469 765.796875 669.722656 764.789062 648.351562 763.640625 L 648.367188 763.320312 L 656.402344 763.316406 L 664.433594 763.402344 L 680.492188 763.535156 L 712.582031 764.015625 L 720.601562 764.125 L 728.621094 764.261719 L 744.652344 764.46875 C 755.335938 764.613281 766.023438 764.738281 776.695312 764.707031 C 787.363281 764.746094 798.050781 764.609375 808.734375 764.476562 L 824.765625 764.269531 L 832.785156 764.132812 L 840.804688 764.023438 L 872.894531 763.542969 L 888.953125 763.40625 L 896.984375 763.320312 L 905.019531 763.320312 L 905.035156 763.640625 C 883.664062 764.789062 862.28125 765.792969 840.894531 766.566406 Z M 840.894531 766.566406 " fill-opacity="1" fill-rule="nonzero"/></svg>